<svg xmlns="http://www.w3.org/2000/svg" width="2172" height="724" viewBox="0 0 2172 724" role="img" aria-label="Sports car riding on foam waves logo">
<rect width="100%" height="100%" fill="#FFFFFF"/>
<g fill="#8CC6F6" fill-rule="evenodd">
  <path d="M 1483.0 574.0 L 1486.0 574.0 L 1487.0 576.0 L 1508.0 576.0 L 1502.0 576.0 L 1501.0 575.0 L 1490.0 576.0 L 1489.0 574.0 Z"/>
  <path d="M 1613.0 533.0 L 1626.0 531.0 L 1618.0 530.0 Z"/>
  <path d="M 1542.0 519.0 L 1537.0 521.0 L 1537.0 524.0 L 1540.0 528.0 L 1545.0 525.0 L 1545.0 521.0 Z"/>
  <path d="M 1086.0 508.0 L 1028.0 507.0 L 1027.0 508.0 L 1014.0 508.0 L 1013.0 509.0 L 996.0 510.0 L 995.0 511.0 L 978.0 513.0 L 924.0 525.0 L 828.0 556.0 L 776.0 570.0 L 724.0 580.0 L 701.0 582.0 L 700.0 583.0 L 690.0 583.0 L 692.0 584.0 L 750.0 584.0 L 751.0 583.0 L 775.0 582.0 L 776.0 581.0 L 783.0 581.0 L 784.0 580.0 L 816.0 576.0 L 836.0 571.0 L 840.0 571.0 L 877.0 561.0 L 928.0 544.0 L 931.0 542.0 L 985.0 525.0 L 1030.0 515.0 L 1061.0 511.0 L 1062.0 510.0 L 1085.0 509.0 Z"/>
  <path d="M 1772.0 504.0 L 1777.0 505.0 L 1777.0 510.0 L 1779.0 512.0 L 1778.0 509.0 L 1781.0 505.0 L 1780.0 504.0 Z"/>
  <path d="M 2129.0 529.0 L 2124.0 524.0 L 2115.0 519.0 L 2105.0 516.0 L 2092.0 515.0 L 2091.0 516.0 L 2079.0 517.0 L 2042.0 531.0 L 2037.0 532.0 L 2022.0 531.0 L 2014.0 525.0 L 2020.0 512.0 L 2020.0 505.0 L 2016.0 497.0 L 2005.0 491.0 L 1990.0 491.0 L 1983.0 493.0 L 1973.0 498.0 L 1931.0 528.0 L 1896.0 546.0 L 1852.0 561.0 L 1811.0 569.0 L 1848.0 569.0 L 1849.0 568.0 L 1859.0 568.0 L 1860.0 567.0 L 1873.0 566.0 L 1905.0 559.0 L 1935.0 548.0 L 1936.0 551.0 L 1923.0 561.0 L 1911.0 566.0 L 1904.0 567.0 L 1904.0 568.0 L 1923.0 567.0 L 1949.0 561.0 L 1959.0 557.0 L 1985.0 543.0 L 1999.0 538.0 L 2007.0 537.0 L 2010.0 538.0 L 2011.0 540.0 L 2003.0 549.0 L 1994.0 554.0 L 1992.0 554.0 L 1992.0 555.0 L 2007.0 556.0 L 2031.0 551.0 L 2034.0 549.0 L 2047.0 545.0 L 2068.0 535.0 L 2090.0 528.0 L 2101.0 527.0 L 2102.0 526.0 L 2113.0 526.0 Z"/>
  <path d="M 2057.0 485.0 L 2052.0 489.0 L 2051.0 496.0 L 2054.0 501.0 L 2058.0 503.0 L 2062.0 503.0 L 2067.0 500.0 L 2069.0 496.0 L 2069.0 493.0 L 2066.0 487.0 L 2062.0 485.0 Z"/>
  <path d="M 741.0 483.0 L 749.0 485.0 L 756.0 485.0 L 764.0 483.0 L 777.0 483.0 L 780.0 482.0 L 780.0 480.0 L 777.0 476.0 L 771.0 473.0 L 754.0 473.0 L 746.0 477.0 Z"/>
  <path d="M 1499.0 475.0 L 1496.0 478.0 L 1490.0 478.0 L 1482.0 480.0 L 1481.0 478.0 L 1487.0 472.0 L 1481.0 478.0 L 1483.0 483.0 L 1481.0 485.0 L 1479.0 485.0 L 1481.0 485.0 L 1490.0 480.0 L 1497.0 481.0 L 1495.0 479.0 Z"/>
  <path d="M 1589.0 467.0 L 1590.0 469.0 L 1600.0 469.0 L 1601.0 467.0 L 1632.0 467.0 Z"/>
  <path d="M 1252.0 463.0 L 1248.0 465.0 L 1215.0 465.0 L 1214.0 467.0 L 1230.0 470.0 L 1244.0 469.0 L 1246.0 472.0 L 1246.0 475.0 L 1245.0 471.0 L 1246.0 468.0 L 1244.0 466.0 Z"/>
  <path d="M 44.0 485.0 L 63.0 479.0 L 84.0 475.0 L 90.0 475.0 L 91.0 474.0 L 101.0 474.0 L 102.0 473.0 L 148.0 473.0 L 149.0 474.0 L 162.0 474.0 L 171.0 476.0 L 179.0 476.0 L 180.0 477.0 L 211.0 481.0 L 236.0 486.0 L 241.0 488.0 L 245.0 488.0 L 283.0 498.0 L 222.0 483.0 L 217.0 483.0 L 211.0 481.0 L 181.0 477.0 L 180.0 476.0 L 151.0 474.0 L 150.0 473.0 L 101.0 473.0 L 100.0 474.0 L 90.0 474.0 L 89.0 475.0 L 77.0 476.0 L 58.0 481.0 L 56.0 480.0 L 59.0 477.0 L 78.0 470.0 L 109.0 463.0 L 132.0 461.0 L 133.0 460.0 L 149.0 460.0 L 150.0 459.0 L 191.0 460.0 L 192.0 461.0 L 202.0 461.0 L 203.0 462.0 L 211.0 462.0 L 212.0 463.0 L 232.0 465.0 L 263.0 471.0 L 272.0 474.0 L 276.0 474.0 L 322.0 486.0 L 329.0 489.0 L 332.0 489.0 L 339.0 492.0 L 342.0 492.0 L 397.0 509.0 L 375.0 502.0 L 372.0 502.0 L 362.0 498.0 L 359.0 498.0 L 349.0 494.0 L 339.0 492.0 L 329.0 488.0 L 285.0 476.0 L 281.0 476.0 L 264.0 471.0 L 239.0 466.0 L 213.0 463.0 L 212.0 462.0 L 205.0 462.0 L 204.0 461.0 L 193.0 461.0 L 192.0 460.0 L 147.0 459.0 L 146.0 460.0 L 132.0 460.0 L 131.0 461.0 L 108.0 463.0 L 85.0 468.0 L 69.0 473.0 Z"/>
  <path d="M 1373.0 457.0 L 1370.0 458.0 L 1367.0 463.0 L 1369.0 461.0 L 1375.0 461.0 Z"/>
  <path d="M 444.0 456.0 L 443.0 460.0 L 445.0 461.0 L 446.0 457.0 Z"/>
  <path d="M 1300.0 452.0 L 1298.0 450.0 L 1282.0 458.0 Z"/>
  <path d="M 1531.0 449.0 L 1531.0 453.0 L 1527.0 466.0 L 1533.0 452.0 Z"/>
  <path d="M 1458.0 449.0 L 1455.0 452.0 L 1454.0 455.0 L 1452.0 456.0 L 1455.0 456.0 L 1460.0 460.0 L 1459.0 458.0 L 1461.0 456.0 L 1461.0 451.0 Z"/>
  <path d="M 1686.0 448.0 L 1687.0 451.0 L 1690.0 454.0 L 1692.0 452.0 L 1696.0 456.0 L 1695.0 458.0 L 1697.0 458.0 L 1691.0 451.0 Z"/>
  <path d="M 1331.0 450.0 L 1333.0 449.0 L 1336.0 450.0 L 1342.0 465.0 L 1339.0 454.0 L 1337.0 453.0 L 1338.0 449.0 L 1335.0 448.0 Z"/>
  <path d="M 1471.0 441.0 L 1468.0 445.0 L 1469.0 448.0 L 1472.0 450.0 L 1476.0 450.0 L 1480.0 446.0 L 1480.0 444.0 L 1477.0 441.0 Z"/>
  <path d="M 1771.0 439.0 L 1769.0 442.0 L 1769.0 445.0 L 1774.0 446.0 L 1776.0 444.0 L 1776.0 442.0 Z M 1769.0 445.0 L 1769.0 443.0 L 1772.0 440.0 L 1776.0 443.0 L 1774.0 446.0 Z"/>
  <path d="M 518.0 439.0 L 516.0 441.0 L 516.0 445.0 L 521.0 446.0 L 522.0 441.0 L 520.0 439.0 Z"/>
  <path d="M 363.0 428.0 L 360.0 432.0 L 360.0 436.0 L 363.0 440.0 L 368.0 441.0 L 373.0 436.0 L 372.0 431.0 L 369.0 428.0 Z"/>
  <path d="M 1334.0 419.0 L 1334.0 435.0 L 1336.0 435.0 L 1336.0 421.0 Z"/>
  <path d="M 809.0 419.0 L 806.0 422.0 L 807.0 424.0 L 811.0 425.0 L 813.0 423.0 L 813.0 421.0 L 811.0 419.0 Z M 807.0 421.0 L 810.0 419.0 L 812.0 420.0 L 811.0 423.0 L 808.0 423.0 Z"/>
  <path d="M 978.0 419.0 L 1008.0 423.0 L 1009.0 424.0 L 1017.0 424.0 L 997.0 420.0 L 992.0 421.0 L 991.0 419.0 L 986.0 420.0 L 985.0 418.0 L 981.0 419.0 L 980.0 417.0 Z"/>
  <path d="M 2052.0 416.0 L 2061.0 424.0 L 2068.0 437.0 L 2068.0 450.0 L 2065.0 457.0 L 2062.0 455.0 L 2059.0 448.0 L 2050.0 441.0 L 2038.0 436.0 L 2033.0 436.0 L 2032.0 435.0 L 2027.0 435.0 L 2027.0 436.0 L 2032.0 442.0 L 2028.0 437.0 L 2029.0 435.0 L 2038.0 436.0 L 2050.0 441.0 L 2057.0 446.0 L 2061.0 451.0 L 2063.0 459.0 L 2066.0 456.0 L 2068.0 451.0 L 2068.0 446.0 L 2069.0 445.0 L 2068.0 437.0 L 2062.0 425.0 Z"/>
  <path d="M 760.0 414.0 L 759.0 422.0 L 762.0 425.0 L 768.0 425.0 L 772.0 420.0 L 771.0 416.0 L 768.0 413.0 Z"/>
  <path d="M 1784.0 410.0 L 1779.0 414.0 L 1778.0 419.0 L 1779.0 422.0 L 1782.0 425.0 L 1789.0 425.0 L 1793.0 420.0 L 1793.0 415.0 L 1789.0 411.0 Z"/>
  <path d="M 1628.0 410.0 L 1626.0 412.0 L 1624.0 410.0 L 1620.0 414.0 L 1621.0 416.0 L 1618.0 419.0 L 1619.0 421.0 L 1618.0 422.0 L 1616.0 421.0 L 1617.0 422.0 L 1616.0 424.0 Z"/>
  <path d="M 110.0 421.0 L 131.0 417.0 L 141.0 417.0 L 142.0 416.0 L 171.0 416.0 L 172.0 417.0 L 192.0 418.0 L 193.0 419.0 L 221.0 423.0 L 289.0 441.0 L 365.0 467.0 L 368.0 469.0 L 441.0 492.0 L 493.0 505.0 L 498.0 505.0 L 514.0 509.0 L 520.0 509.0 L 541.0 513.0 L 557.0 514.0 L 558.0 515.0 L 583.0 516.0 L 584.0 517.0 L 644.0 517.0 L 645.0 516.0 L 678.0 514.0 L 679.0 513.0 L 699.0 511.0 L 700.0 510.0 L 722.0 507.0 L 727.0 505.0 L 732.0 505.0 L 797.0 489.0 L 763.0 494.0 L 762.0 495.0 L 745.0 495.0 L 743.0 488.0 L 738.0 484.0 L 735.0 483.0 L 723.0 484.0 L 720.0 478.0 L 711.0 470.0 L 701.0 465.0 L 693.0 463.0 L 685.0 463.0 L 684.0 462.0 L 683.0 463.0 L 676.0 463.0 L 663.0 469.0 L 656.0 475.0 L 649.0 486.0 L 646.0 486.0 L 644.0 484.0 L 638.0 484.0 L 630.0 489.0 L 627.0 489.0 L 621.0 483.0 L 617.0 482.0 L 609.0 474.0 L 606.0 474.0 L 609.0 474.0 L 614.0 478.0 L 614.0 482.0 L 609.0 488.0 L 602.0 487.0 L 599.0 484.0 L 599.0 480.0 L 598.0 484.0 L 596.0 484.0 L 588.0 489.0 L 581.0 477.0 L 572.0 468.0 L 568.0 470.0 L 565.0 470.0 L 558.0 466.0 L 556.0 468.0 L 552.0 468.0 L 540.0 473.0 L 533.0 479.0 L 528.0 487.0 L 521.0 483.0 L 512.0 481.0 L 504.0 481.0 L 499.0 483.0 L 498.0 482.0 L 500.0 477.0 L 499.0 472.0 L 493.0 467.0 L 484.0 467.0 L 481.0 469.0 L 475.0 478.0 L 475.0 481.0 L 471.0 485.0 L 468.0 485.0 L 464.0 483.0 L 427.0 474.0 L 391.0 462.0 L 388.0 462.0 L 306.0 433.0 L 282.0 427.0 L 275.0 424.0 L 240.0 416.0 L 234.0 416.0 L 228.0 414.0 L 206.0 412.0 L 205.0 411.0 L 169.0 410.0 L 168.0 411.0 L 155.0 411.0 L 154.0 412.0 L 135.0 414.0 Z M 661.0 495.0 L 664.0 492.0 L 670.0 489.0 L 677.0 488.0 L 687.0 491.0 L 693.0 490.0 L 702.0 494.0 L 713.0 495.0 L 715.0 498.0 L 712.0 500.0 L 704.0 500.0 L 703.0 501.0 L 664.0 503.0 L 663.0 501.0 L 665.0 499.0 Z"/>
  <path d="M 1543.0 404.0 L 1541.0 406.0 L 1544.0 413.0 L 1545.0 425.0 L 1545.0 411.0 Z"/>
  <path d="M 313.0 399.0 L 307.0 404.0 L 306.0 413.0 L 309.0 418.0 L 312.0 420.0 L 320.0 420.0 L 325.0 416.0 L 327.0 412.0 L 327.0 407.0 L 323.0 401.0 L 319.0 399.0 Z"/>
  <path d="M 1020.0 398.0 L 1026.0 412.0 L 1025.0 413.0 L 1019.0 413.0 L 1026.0 413.0 L 1027.0 414.0 L 1027.0 421.0 L 1029.0 423.0 L 1045.0 425.0 L 1046.0 426.0 L 1062.0 427.0 L 1036.0 423.0 L 1031.0 421.0 L 1030.0 418.0 L 1031.0 422.0 L 1029.0 423.0 L 1027.0 421.0 L 1027.0 417.0 L 1030.0 414.0 L 1039.0 414.0 L 1028.0 414.0 L 1027.0 409.0 Z"/>
  <path d="M 1528.0 394.0 L 1530.0 402.0 L 1530.0 400.0 L 1532.0 399.0 L 1533.0 403.0 L 1533.0 400.0 L 1535.0 399.0 L 1540.0 404.0 L 1532.0 397.0 L 1530.0 393.0 Z"/>
  <path d="M 488.0 391.0 L 501.0 399.0 L 500.0 398.0 L 501.0 396.0 L 493.0 392.0 Z"/>
  <path d="M 622.0 389.0 L 620.0 395.0 L 619.0 424.0 L 617.0 425.0 L 617.0 427.0 L 619.0 426.0 L 620.0 428.0 L 618.0 429.0 L 618.0 431.0 L 619.0 430.0 L 621.0 431.0 L 622.0 434.0 L 620.0 435.0 L 623.0 439.0 L 624.0 443.0 L 625.0 442.0 L 638.0 443.0 L 628.0 442.0 L 620.0 429.0 L 619.0 418.0 L 621.0 413.0 L 621.0 404.0 L 624.0 403.0 L 625.0 404.0 L 625.0 415.0 L 628.0 427.0 L 632.0 436.0 L 628.0 423.0 L 628.0 418.0 L 626.0 417.0 L 628.0 400.0 L 628.0 403.0 L 626.0 404.0 L 624.0 398.0 L 624.0 392.0 L 623.0 389.0 Z"/>
  <path d="M 1557.0 389.0 L 1557.0 386.0 L 1555.0 385.0 L 1552.0 385.0 L 1552.0 387.0 L 1549.0 388.0 L 1550.0 389.0 L 1549.0 391.0 L 1542.0 391.0 L 1541.0 389.0 L 1545.0 388.0 L 1535.0 387.0 L 1537.0 392.0 L 1540.0 391.0 L 1545.0 393.0 L 1553.0 393.0 Z"/>
  <path d="M 422.0 375.0 L 419.0 376.0 L 415.0 380.0 L 414.0 387.0 L 416.0 391.0 L 419.0 393.0 L 426.0 393.0 L 431.0 389.0 L 432.0 383.0 L 431.0 380.0 L 427.0 376.0 Z"/>
  <path d="M 1352.0 372.0 L 1341.0 391.0 L 1338.0 400.0 L 1340.0 402.0 L 1343.0 390.0 Z"/>
  <path d="M 1979.0 370.0 L 1977.0 368.0 L 1961.0 368.0 L 1958.0 370.0 L 1960.0 370.0 L 1964.0 373.0 L 1963.0 376.0 L 1955.0 377.0 L 1954.0 379.0 L 1947.0 378.0 L 1939.0 383.0 L 1937.0 383.0 L 1928.0 392.0 L 1925.0 393.0 L 1910.0 408.0 L 1898.0 403.0 L 1889.0 403.0 L 1876.0 409.0 L 1872.0 400.0 L 1864.0 393.0 L 1855.0 390.0 L 1842.0 392.0 L 1839.0 389.0 L 1842.0 392.0 L 1842.0 395.0 L 1836.0 401.0 L 1832.0 401.0 L 1831.0 397.0 L 1831.0 401.0 L 1824.0 414.0 L 1824.0 427.0 L 1808.0 432.0 L 1799.0 440.0 L 1794.0 450.0 L 1794.0 458.0 L 1793.0 459.0 L 1784.0 459.0 L 1778.0 461.0 L 1765.0 469.0 L 1762.0 468.0 L 1764.0 463.0 L 1763.0 454.0 L 1761.0 450.0 L 1756.0 445.0 L 1751.0 443.0 L 1746.0 443.0 L 1739.0 446.0 L 1735.0 450.0 L 1733.0 455.0 L 1733.0 462.0 L 1735.0 465.0 L 1735.0 468.0 L 1728.0 471.0 L 1771.0 472.0 L 1772.0 474.0 L 1769.0 477.0 L 1774.0 471.0 L 1783.0 467.0 L 1790.0 467.0 L 1796.0 469.0 L 1800.0 465.0 L 1806.0 465.0 L 1811.0 468.0 L 1818.0 462.0 L 1827.0 460.0 L 1831.0 461.0 L 1831.0 455.0 L 1833.0 447.0 L 1837.0 438.0 L 1844.0 431.0 L 1850.0 427.0 L 1860.0 424.0 L 1870.0 424.0 L 1874.0 426.0 L 1877.0 426.0 L 1883.0 420.0 L 1887.0 418.0 L 1899.0 418.0 L 1900.0 419.0 L 1875.0 449.0 L 1866.0 458.0 L 1859.0 463.0 L 1844.0 479.0 L 1837.0 484.0 L 1826.0 495.0 L 1827.0 496.0 L 1826.0 498.0 L 1823.0 497.0 L 1816.0 502.0 L 1802.0 509.0 L 1796.0 510.0 L 1789.0 514.0 L 1783.0 516.0 L 1780.0 514.0 L 1777.0 518.0 L 1766.0 522.0 L 1764.0 521.0 L 1764.0 514.0 L 1765.0 510.0 L 1767.0 508.0 L 1747.0 513.0 L 1739.0 517.0 L 1736.0 520.0 L 1730.0 522.0 L 1727.0 525.0 L 1732.0 529.0 L 1732.0 531.0 L 1728.0 533.0 L 1723.0 532.0 L 1725.0 529.0 L 1721.0 532.0 L 1719.0 529.0 L 1714.0 526.0 L 1702.0 526.0 L 1700.0 525.0 L 1698.0 526.0 L 1697.0 531.0 L 1702.0 535.0 L 1700.0 538.0 L 1692.0 538.0 L 1690.0 540.0 L 1679.0 540.0 L 1676.0 542.0 L 1667.0 544.0 L 1652.0 545.0 L 1651.0 546.0 L 1636.0 547.0 L 1635.0 548.0 L 1622.0 548.0 L 1621.0 550.0 L 1610.0 550.0 L 1609.0 548.0 L 1603.0 548.0 L 1606.0 549.0 L 1605.0 551.0 L 1602.0 551.0 L 1601.0 549.0 L 1593.0 551.0 L 1537.0 551.0 L 1536.0 550.0 L 1521.0 550.0 L 1520.0 549.0 L 1505.0 548.0 L 1489.0 543.0 L 1481.0 542.0 L 1480.0 541.0 L 1481.0 539.0 L 1496.0 540.0 L 1496.0 535.0 L 1493.0 529.0 L 1494.0 526.0 L 1501.0 526.0 L 1505.0 530.0 L 1504.0 540.0 L 1507.0 540.0 L 1509.0 538.0 L 1510.0 533.0 L 1512.0 531.0 L 1517.0 533.0 L 1521.0 537.0 L 1522.0 540.0 L 1544.0 539.0 L 1545.0 538.0 L 1539.0 534.0 L 1531.0 532.0 L 1527.0 528.0 L 1523.0 527.0 L 1521.0 524.0 L 1512.0 521.0 L 1487.0 520.0 L 1472.0 523.0 L 1466.0 510.0 L 1457.0 501.0 L 1448.0 496.0 L 1441.0 494.0 L 1425.0 494.0 L 1418.0 496.0 L 1405.0 503.0 L 1396.0 513.0 L 1388.0 509.0 L 1379.0 509.0 L 1378.0 506.0 L 1378.0 510.0 L 1372.0 516.0 L 1365.0 517.0 L 1359.0 512.0 L 1359.0 510.0 L 1355.0 515.0 L 1353.0 520.0 L 1348.0 520.0 L 1331.0 515.0 L 1326.0 515.0 L 1321.0 513.0 L 1316.0 513.0 L 1311.0 511.0 L 1297.0 509.0 L 1328.0 519.0 L 1335.0 518.0 L 1350.0 521.0 L 1353.0 520.0 L 1385.0 528.0 L 1405.0 531.0 L 1410.0 533.0 L 1455.0 542.0 L 1457.0 545.0 L 1466.0 547.0 L 1475.0 554.0 L 1485.0 555.0 L 1491.0 557.0 L 1506.0 558.0 L 1507.0 559.0 L 1536.0 561.0 L 1537.0 562.0 L 1549.0 562.0 L 1550.0 563.0 L 1564.0 563.0 L 1565.0 564.0 L 1622.0 564.0 L 1623.0 563.0 L 1637.0 563.0 L 1638.0 562.0 L 1657.0 561.0 L 1658.0 560.0 L 1665.0 560.0 L 1666.0 559.0 L 1672.0 559.0 L 1673.0 558.0 L 1679.0 558.0 L 1680.0 557.0 L 1702.0 554.0 L 1745.0 543.0 L 1768.0 535.0 L 1785.0 528.0 L 1819.0 510.0 L 1842.0 494.0 L 1869.0 471.0 L 1894.0 445.0 L 1926.0 407.0 L 1943.0 391.0 L 1961.0 378.0 L 1974.0 372.0 L 1975.0 370.0 L 1977.0 371.0 Z M 1710.0 535.0 L 1710.0 533.0 L 1713.0 530.0 L 1718.0 530.0 L 1720.0 532.0 L 1718.0 535.0 L 1714.0 536.0 Z M 1850.0 474.0 L 1855.0 468.0 L 1859.0 468.0 L 1863.0 471.0 L 1861.0 474.0 L 1854.0 477.0 L 1852.0 477.0 Z M 1872.0 455.0 L 1874.0 456.0 L 1874.0 459.0 L 1876.0 460.0 L 1875.0 462.0 L 1876.0 464.0 L 1873.0 466.0 L 1869.0 466.0 L 1868.0 464.0 L 1870.0 462.0 L 1868.0 460.0 L 1869.0 457.0 Z M 1872.0 453.0 L 1876.0 448.0 L 1879.0 447.0 L 1886.0 449.0 L 1881.0 454.0 L 1873.0 454.0 Z M 1881.0 443.0 L 1887.0 435.0 L 1889.0 436.0 L 1897.0 435.0 L 1898.0 436.0 L 1897.0 438.0 L 1898.0 440.0 L 1888.0 448.0 L 1883.0 446.0 Z M 1893.0 429.0 L 1899.0 421.0 L 1901.0 422.0 L 1902.0 421.0 L 1904.0 422.0 L 1910.0 421.0 L 1911.0 422.0 L 1911.0 425.0 L 1907.0 429.0 L 1895.0 431.0 Z M 1924.0 407.0 L 1924.0 410.0 L 1922.0 412.0 L 1915.0 411.0 L 1916.0 413.0 L 1911.0 417.0 L 1905.0 415.0 L 1906.0 413.0 L 1909.0 413.0 L 1908.0 410.0 L 1914.0 404.0 L 1918.0 404.0 Z M 1935.0 395.0 L 1934.0 399.0 L 1932.0 401.0 L 1929.0 402.0 L 1922.0 401.0 L 1920.0 403.0 L 1917.0 402.0 L 1920.0 398.0 L 1927.0 395.0 L 1930.0 391.0 Z"/>
  <path d="M 560.0 365.0 L 559.0 367.0 L 573.0 374.0 Z"/>
  <path d="M 818.0 363.0 L 821.0 369.0 L 824.0 381.0 L 826.0 382.0 L 825.0 385.0 L 826.0 388.0 L 828.0 389.0 L 827.0 391.0 L 828.0 396.0 L 829.0 394.0 L 828.0 388.0 L 823.0 373.0 Z"/>
  <path d="M 1892.0 362.0 L 1887.0 363.0 L 1882.0 369.0 L 1883.0 377.0 L 1886.0 380.0 L 1891.0 382.0 L 1895.0 381.0 L 1900.0 376.0 L 1899.0 366.0 Z"/>
  <path d="M 803.0 354.0 L 811.0 370.0 L 815.0 384.0 L 814.0 380.0 L 816.0 378.0 L 807.0 359.0 Z"/>
  <path d="M 256.0 358.0 L 259.0 357.0 L 276.0 357.0 L 277.0 358.0 L 291.0 359.0 L 313.0 366.0 L 334.0 377.0 L 353.0 391.0 L 389.0 424.0 L 414.0 441.0 L 413.0 443.0 L 410.0 444.0 L 405.0 442.0 L 401.0 444.0 L 397.0 444.0 L 396.0 449.0 L 400.0 451.0 L 409.0 452.0 L 415.0 455.0 L 417.0 450.0 L 424.0 442.0 L 430.0 438.0 L 440.0 435.0 L 450.0 435.0 L 462.0 440.0 L 467.0 445.0 L 463.0 441.0 L 466.0 437.0 L 471.0 437.0 L 475.0 441.0 L 476.0 444.0 L 483.0 443.0 L 487.0 441.0 L 500.0 442.0 L 506.0 433.0 L 509.0 431.0 L 502.0 426.0 L 501.0 428.0 L 485.0 428.0 L 477.0 431.0 L 474.0 434.0 L 472.0 432.0 L 468.0 432.0 L 466.0 429.0 L 468.0 426.0 L 469.0 417.0 L 466.0 412.0 L 460.0 409.0 L 454.0 409.0 L 447.0 415.0 L 445.0 420.0 L 446.0 423.0 L 445.0 428.0 L 438.0 426.0 L 415.0 415.0 L 399.0 404.0 L 374.0 384.0 L 354.0 371.0 L 326.0 359.0 L 309.0 355.0 L 294.0 354.0 L 293.0 353.0 L 271.0 354.0 L 270.0 355.0 L 260.0 356.0 Z M 406.0 422.0 L 409.0 422.0 L 411.0 424.0 L 411.0 427.0 L 408.0 430.0 L 406.0 430.0 L 404.0 428.0 L 404.0 424.0 Z"/>
  <path d="M 477.0 342.0 L 501.0 352.0 L 499.0 351.0 L 499.0 349.0 L 493.0 347.0 L 491.0 348.0 L 490.0 346.0 Z"/>
  <path d="M 1700.0 331.0 L 1694.0 336.0 L 1694.0 344.0 L 1699.0 349.0 L 1706.0 349.0 L 1710.0 346.0 L 1712.0 342.0 L 1712.0 339.0 L 1709.0 333.0 L 1705.0 331.0 Z"/>
  <path d="M 1038.0 325.0 L 1034.0 323.0 L 1036.0 325.0 L 1035.0 327.0 L 1028.0 328.0 L 1036.0 328.0 Z"/>
  <path d="M 598.0 321.0 L 598.0 323.0 L 610.0 334.0 L 607.0 338.0 L 610.0 335.0 L 613.0 335.0 L 620.0 339.0 L 621.0 342.0 L 619.0 345.0 L 622.0 341.0 L 622.0 339.0 L 613.0 335.0 L 607.0 330.0 L 605.0 330.0 L 598.0 323.0 L 599.0 321.0 Z"/>
  <path d="M 643.0 317.0 L 641.0 316.0 L 638.0 317.0 L 639.0 319.0 L 628.0 328.0 L 634.0 324.0 L 637.0 325.0 L 639.0 323.0 L 638.0 321.0 Z"/>
  <path d="M 947.0 313.0 L 944.0 313.0 L 943.0 315.0 L 938.0 314.0 L 937.0 316.0 L 933.0 315.0 L 932.0 318.0 L 930.0 316.0 L 926.0 316.0 L 929.0 317.0 L 928.0 319.0 L 926.0 319.0 L 936.0 316.0 L 946.0 315.0 Z"/>
  <path d="M 971.0 310.0 L 966.0 309.0 L 965.0 311.0 L 960.0 311.0 L 960.0 313.0 L 968.0 313.0 Z"/>
  <path d="M 483.0 291.0 L 499.0 296.0 L 502.0 295.0 L 503.0 297.0 L 513.0 300.0 L 526.0 302.0 L 514.0 298.0 L 511.0 299.0 L 510.0 297.0 L 502.0 295.0 L 499.0 296.0 L 498.0 294.0 Z"/>
  <path d="M 1370.0 285.0 L 1392.0 294.0 L 1401.0 296.0 L 1399.0 294.0 L 1393.0 293.0 L 1376.0 286.0 Z"/>
  <path d="M 545.0 284.0 L 545.0 282.0 L 537.0 282.0 L 534.0 285.0 L 532.0 283.0 L 524.0 283.0 L 529.0 283.0 L 530.0 285.0 L 528.0 287.0 L 529.0 286.0 L 534.0 286.0 L 535.0 284.0 L 538.0 285.0 Z"/>
  <path d="M 754.0 279.0 L 760.0 281.0 L 766.0 280.0 L 767.0 282.0 L 770.0 282.0 L 769.0 280.0 Z"/>
  <path d="M 769.0 271.0 L 814.0 273.0 L 806.0 273.0 L 805.0 271.0 L 774.0 271.0 L 773.0 270.0 Z"/>
  <path d="M 836.0 263.0 L 848.0 266.0 L 853.0 266.0 L 854.0 268.0 L 862.0 267.0 Z"/>
  <path d="M 940.0 257.0 L 936.0 257.0 L 924.0 261.0 L 919.0 264.0 Z"/>
  <path d="M 822.0 260.0 L 803.0 257.0 L 800.0 254.0 L 797.0 255.0 L 767.0 255.0 L 798.0 255.0 L 805.0 258.0 Z"/>
  <path d="M 973.0 253.0 L 953.0 257.0 L 942.0 262.0 L 937.0 267.0 L 941.0 268.0 L 940.0 266.0 L 944.0 262.0 L 955.0 257.0 L 967.0 256.0 Z"/>
  <path d="M 646.0 229.0 L 642.0 233.0 L 642.0 239.0 L 645.0 242.0 L 650.0 243.0 L 655.0 239.0 L 655.0 233.0 L 651.0 229.0 Z"/>
  <path d="M 542.0 228.0 L 538.0 231.0 L 537.0 235.0 L 540.0 240.0 L 546.0 241.0 L 549.0 238.0 L 550.0 233.0 L 546.0 228.0 Z"/>
</g>
<g fill="#B9BDC4" fill-rule="evenodd">
  <path d="M 1693.0 537.0 L 1703.0 536.0 L 1700.0 535.0 L 1697.0 532.0 L 1697.0 530.0 Z"/>
  <path d="M 973.0 569.0 L 975.0 569.0 L 982.0 564.0 L 1005.0 554.0 L 1036.0 544.0 L 1070.0 537.0 L 1087.0 536.0 L 1097.0 534.0 L 1150.0 534.0 L 1151.0 535.0 L 1170.0 536.0 L 1171.0 537.0 L 1206.0 541.0 L 1264.0 553.0 L 1213.0 538.0 L 1206.0 537.0 L 1202.0 535.0 L 1165.0 527.0 L 1144.0 525.0 L 1143.0 524.0 L 1134.0 524.0 L 1133.0 523.0 L 1097.0 523.0 L 1096.0 524.0 L 1086.0 524.0 L 1085.0 525.0 L 1066.0 527.0 L 1032.0 536.0 L 1017.0 542.0 L 1005.0 549.0 L 1003.0 549.0 Z"/>
  <path d="M 1330.0 520.0 L 1403.0 540.0 L 1473.0 554.0 L 1472.0 552.0 L 1466.0 550.0 L 1465.0 548.0 L 1457.0 546.0 L 1455.0 543.0 L 1385.0 529.0 L 1353.0 521.0 L 1350.0 522.0 L 1342.0 520.0 Z"/>
  <path d="M 116.0 534.0 L 134.0 529.0 L 164.0 526.0 L 165.0 525.0 L 211.0 525.0 L 212.0 526.0 L 226.0 526.0 L 227.0 527.0 L 245.0 528.0 L 246.0 529.0 L 260.0 530.0 L 308.0 539.0 L 403.0 562.0 L 448.0 571.0 L 453.0 571.0 L 459.0 573.0 L 475.0 575.0 L 462.0 573.0 L 434.0 566.0 L 321.0 533.0 L 317.0 533.0 L 281.0 524.0 L 276.0 524.0 L 257.0 520.0 L 250.0 520.0 L 249.0 519.0 L 226.0 518.0 L 225.0 517.0 L 179.0 518.0 L 178.0 519.0 L 158.0 521.0 L 137.0 526.0 L 119.0 532.0 Z"/>
  <path d="M 1679.0 509.0 L 1673.0 504.0 L 1665.0 504.0 L 1661.0 506.0 L 1657.0 513.0 L 1658.0 519.0 L 1648.0 523.0 L 1646.0 525.0 L 1645.0 529.0 L 1652.0 528.0 L 1660.0 525.0 L 1672.0 525.0 L 1678.0 522.0 L 1680.0 518.0 Z"/>
  <path d="M 1780.0 489.0 L 1779.0 491.0 L 1782.0 495.0 L 1786.0 495.0 L 1787.0 489.0 L 1785.0 488.0 Z"/>
  <path d="M 786.0 460.0 L 783.0 464.0 L 787.0 469.0 L 792.0 469.0 L 795.0 465.0 L 794.0 460.0 L 792.0 459.0 Z"/>
  <path d="M 1866.0 449.0 L 1861.0 449.0 L 1857.0 452.0 L 1856.0 454.0 L 1857.0 464.0 L 1869.0 454.0 Z"/>
  <path d="M 2108.0 443.0 L 2104.0 445.0 L 2102.0 448.0 L 2102.0 454.0 L 2106.0 458.0 L 2113.0 458.0 L 2117.0 453.0 L 2117.0 449.0 L 2113.0 444.0 Z"/>
  <path d="M 241.0 379.0 L 239.0 382.0 L 239.0 385.0 L 242.0 388.0 L 247.0 388.0 L 250.0 384.0 L 249.0 380.0 L 246.0 378.0 Z"/>
  <path d="M 1963.0 373.0 L 1959.0 369.0 L 1946.0 376.0 L 1938.0 382.0 L 1949.0 376.0 L 1952.0 377.0 L 1961.0 376.0 L 1963.0 375.0 Z"/>
  <path d="M 1963.0 367.0 L 1978.0 367.0 L 1980.0 370.0 L 1981.0 368.0 L 1983.0 369.0 L 1984.0 367.0 L 1987.0 366.0 L 1990.0 367.0 L 2001.0 364.0 L 2010.0 364.0 L 2011.0 363.0 L 2029.0 364.0 L 2051.0 370.0 L 2059.0 374.0 L 2070.0 382.0 L 2059.0 373.0 L 2042.0 364.0 L 2017.0 358.0 L 1987.0 359.0 L 1975.0 362.0 Z"/>
  <path d="M 1774.0 353.0 L 1768.0 357.0 L 1766.0 365.0 L 1772.0 373.0 L 1780.0 373.0 L 1786.0 368.0 L 1787.0 362.0 L 1783.0 355.0 L 1779.0 353.0 Z"/>
  <path d="M 1930.0 336.0 L 1925.0 340.0 L 1925.0 344.0 L 1929.0 348.0 L 1934.0 348.0 L 1937.0 345.0 L 1937.0 340.0 L 1936.0 338.0 Z"/>
  <path d="M 1988.0 325.0 L 1985.0 327.0 L 1984.0 331.0 L 1987.0 335.0 L 1990.0 336.0 L 1994.0 334.0 L 1995.0 329.0 L 1993.0 326.0 Z"/>
  <path d="M 408.0 292.0 L 404.0 295.0 L 404.0 301.0 L 408.0 304.0 L 411.0 304.0 L 414.0 302.0 L 415.0 296.0 L 411.0 292.0 Z"/>
</g>
<g fill="#0F7EE8" fill-rule="evenodd">
  <path d="M 1621.0 548.0 L 1602.0 549.0 L 1599.0 550.0 L 1621.0 549.0 Z"/>
  <path d="M 1710.0 535.0 L 1714.0 535.0 L 1720.0 533.0 L 1718.0 531.0 L 1713.0 531.0 Z"/>
  <path d="M 1729.0 524.0 L 1724.0 532.0 L 1728.0 532.0 L 1732.0 530.0 L 1729.0 528.0 L 1728.0 526.0 Z"/>
  <path d="M 1778.0 505.0 L 1771.0 505.0 L 1768.0 507.0 L 1765.0 514.0 L 1765.0 521.0 L 1777.0 517.0 L 1779.0 515.0 L 1779.0 513.0 L 1778.0 513.0 L 1776.0 510.0 L 1776.0 506.0 Z"/>
  <path d="M 1366.0 499.0 L 1361.0 502.0 L 1359.0 506.0 L 1360.0 512.0 L 1363.0 515.0 L 1369.0 516.0 L 1372.0 515.0 L 1377.0 510.0 L 1377.0 505.0 L 1373.0 500.0 L 1371.0 499.0 Z"/>
  <path d="M 605.0 475.0 L 600.0 479.0 L 600.0 484.0 L 604.0 487.0 L 609.0 487.0 L 613.0 482.0 L 613.0 478.0 L 609.0 475.0 Z"/>
  <path d="M 1437.0 473.0 L 1433.0 476.0 L 1432.0 479.0 L 1436.0 484.0 L 1439.0 484.0 L 1443.0 481.0 L 1444.0 478.0 L 1440.0 473.0 Z"/>
  <path d="M 1864.0 471.0 L 1860.0 470.0 L 1858.0 467.0 L 1855.0 469.0 L 1851.0 474.0 L 1852.0 476.0 L 1854.0 476.0 Z"/>
  <path d="M 1797.0 469.0 L 1801.0 475.0 L 1808.0 475.0 L 1810.0 468.0 L 1808.0 468.0 L 1806.0 466.0 L 1800.0 466.0 Z"/>
  <path d="M 841.0 462.0 L 840.0 465.0 L 842.0 468.0 L 846.0 468.0 L 848.0 466.0 L 848.0 462.0 L 847.0 461.0 Z"/>
  <path d="M 51.0 482.0 L 55.0 480.0 L 67.0 478.0 L 72.0 476.0 L 82.0 475.0 L 83.0 474.0 L 89.0 474.0 L 90.0 473.0 L 100.0 473.0 L 101.0 472.0 L 150.0 472.0 L 151.0 473.0 L 162.0 473.0 L 163.0 474.0 L 172.0 474.0 L 173.0 475.0 L 194.0 477.0 L 195.0 478.0 L 200.0 478.0 L 206.0 480.0 L 211.0 480.0 L 212.0 481.0 L 236.0 485.0 L 241.0 487.0 L 245.0 487.0 L 246.0 488.0 L 273.0 494.0 L 277.0 496.0 L 280.0 496.0 L 284.0 498.0 L 301.0 502.0 L 308.0 505.0 L 325.0 509.0 L 332.0 512.0 L 335.0 512.0 L 342.0 515.0 L 345.0 515.0 L 352.0 518.0 L 355.0 518.0 L 368.0 523.0 L 371.0 523.0 L 384.0 528.0 L 387.0 528.0 L 394.0 531.0 L 407.0 534.0 L 417.0 538.0 L 424.0 539.0 L 431.0 542.0 L 438.0 543.0 L 442.0 545.0 L 445.0 545.0 L 449.0 547.0 L 460.0 549.0 L 464.0 551.0 L 467.0 551.0 L 480.0 555.0 L 484.0 555.0 L 485.0 556.0 L 493.0 557.0 L 503.0 560.0 L 507.0 560.0 L 508.0 561.0 L 513.0 561.0 L 514.0 562.0 L 524.0 563.0 L 525.0 564.0 L 531.0 564.0 L 532.0 565.0 L 538.0 565.0 L 545.0 567.0 L 553.0 567.0 L 554.0 568.0 L 561.0 568.0 L 562.0 569.0 L 572.0 569.0 L 573.0 570.0 L 587.0 570.0 L 588.0 571.0 L 630.0 571.0 L 631.0 570.0 L 646.0 570.0 L 647.0 569.0 L 676.0 567.0 L 677.0 566.0 L 683.0 566.0 L 684.0 565.0 L 696.0 564.0 L 697.0 563.0 L 707.0 562.0 L 713.0 560.0 L 718.0 560.0 L 719.0 559.0 L 723.0 559.0 L 737.0 555.0 L 746.0 554.0 L 755.0 551.0 L 759.0 551.0 L 760.0 550.0 L 791.0 543.0 L 795.0 541.0 L 817.0 536.0 L 821.0 534.0 L 842.0 529.0 L 849.0 526.0 L 852.0 526.0 L 870.0 520.0 L 877.0 519.0 L 888.0 515.0 L 911.0 510.0 L 915.0 508.0 L 919.0 508.0 L 928.0 505.0 L 943.0 503.0 L 948.0 501.0 L 953.0 501.0 L 954.0 500.0 L 964.0 499.0 L 965.0 498.0 L 986.0 496.0 L 987.0 495.0 L 994.0 495.0 L 995.0 494.0 L 1025.0 493.0 L 1026.0 492.0 L 1073.0 493.0 L 1074.0 494.0 L 1094.0 495.0 L 1095.0 496.0 L 1102.0 496.0 L 1103.0 497.0 L 1123.0 499.0 L 1124.0 500.0 L 1128.0 500.0 L 1134.0 502.0 L 1139.0 502.0 L 1140.0 503.0 L 1159.0 506.0 L 1168.0 509.0 L 1172.0 509.0 L 1184.0 513.0 L 1195.0 515.0 L 1199.0 517.0 L 1206.0 518.0 L 1213.0 521.0 L 1223.0 523.0 L 1253.0 533.0 L 1256.0 533.0 L 1266.0 537.0 L 1269.0 537.0 L 1294.0 545.0 L 1301.0 546.0 L 1305.0 548.0 L 1308.0 548.0 L 1333.0 555.0 L 1337.0 555.0 L 1342.0 557.0 L 1346.0 557.0 L 1351.0 559.0 L 1370.0 562.0 L 1371.0 563.0 L 1389.0 565.0 L 1396.0 567.0 L 1419.0 569.0 L 1420.0 570.0 L 1428.0 570.0 L 1429.0 571.0 L 1492.0 575.0 L 1483.0 575.0 L 1482.0 574.0 L 1474.0 574.0 L 1473.0 573.0 L 1451.0 571.0 L 1445.0 569.0 L 1440.0 569.0 L 1439.0 568.0 L 1434.0 568.0 L 1433.0 567.0 L 1428.0 567.0 L 1427.0 566.0 L 1408.0 563.0 L 1403.0 561.0 L 1399.0 561.0 L 1386.0 557.0 L 1374.0 555.0 L 1370.0 553.0 L 1359.0 551.0 L 1355.0 549.0 L 1338.0 545.0 L 1331.0 542.0 L 1328.0 542.0 L 1321.0 539.0 L 1318.0 539.0 L 1315.0 537.0 L 1312.0 537.0 L 1303.0 533.0 L 1300.0 533.0 L 1297.0 531.0 L 1294.0 531.0 L 1291.0 529.0 L 1255.0 517.0 L 1252.0 515.0 L 1250.0 515.0 L 1237.0 509.0 L 1229.0 507.0 L 1221.0 503.0 L 1213.0 501.0 L 1199.0 495.0 L 1166.0 484.0 L 1163.0 484.0 L 1145.0 478.0 L 1142.0 478.0 L 1129.0 474.0 L 1115.0 472.0 L 1114.0 471.0 L 1109.0 471.0 L 1108.0 470.0 L 1103.0 470.0 L 1096.0 468.0 L 1090.0 468.0 L 1089.0 467.0 L 1082.0 467.0 L 1081.0 466.0 L 1058.0 465.0 L 1057.0 464.0 L 1019.0 464.0 L 1018.0 465.0 L 1003.0 465.0 L 1002.0 466.0 L 992.0 466.0 L 991.0 467.0 L 983.0 467.0 L 982.0 468.0 L 976.0 468.0 L 975.0 469.0 L 957.0 471.0 L 956.0 472.0 L 927.0 477.0 L 926.0 478.0 L 891.0 486.0 L 887.0 488.0 L 884.0 488.0 L 880.0 490.0 L 863.0 494.0 L 856.0 497.0 L 846.0 499.0 L 839.0 502.0 L 836.0 502.0 L 813.0 510.0 L 810.0 510.0 L 797.0 515.0 L 794.0 515.0 L 790.0 517.0 L 787.0 517.0 L 783.0 519.0 L 780.0 519.0 L 776.0 521.0 L 773.0 521.0 L 769.0 523.0 L 762.0 524.0 L 758.0 526.0 L 751.0 527.0 L 747.0 529.0 L 736.0 531.0 L 724.0 535.0 L 720.0 535.0 L 719.0 536.0 L 702.0 539.0 L 701.0 540.0 L 697.0 540.0 L 696.0 541.0 L 691.0 541.0 L 690.0 542.0 L 685.0 542.0 L 684.0 543.0 L 679.0 543.0 L 672.0 545.0 L 666.0 545.0 L 665.0 546.0 L 639.0 548.0 L 638.0 549.0 L 616.0 549.0 L 615.0 550.0 L 578.0 549.0 L 577.0 548.0 L 556.0 547.0 L 555.0 546.0 L 540.0 545.0 L 539.0 544.0 L 527.0 543.0 L 521.0 541.0 L 516.0 541.0 L 515.0 540.0 L 500.0 538.0 L 495.0 536.0 L 491.0 536.0 L 482.0 533.0 L 478.0 533.0 L 477.0 532.0 L 454.0 527.0 L 450.0 525.0 L 447.0 525.0 L 425.0 518.0 L 422.0 518.0 L 415.0 515.0 L 405.0 513.0 L 398.0 510.0 L 395.0 510.0 L 388.0 507.0 L 385.0 507.0 L 375.0 503.0 L 372.0 503.0 L 365.0 500.0 L 362.0 500.0 L 352.0 496.0 L 349.0 496.0 L 342.0 493.0 L 339.0 493.0 L 332.0 490.0 L 329.0 490.0 L 308.0 483.0 L 305.0 483.0 L 276.0 475.0 L 272.0 475.0 L 263.0 472.0 L 254.0 471.0 L 249.0 469.0 L 233.0 467.0 L 232.0 466.0 L 226.0 466.0 L 225.0 465.0 L 219.0 465.0 L 218.0 464.0 L 212.0 464.0 L 211.0 463.0 L 192.0 462.0 L 191.0 461.0 L 173.0 461.0 L 172.0 460.0 L 150.0 460.0 L 149.0 461.0 L 124.0 462.0 L 123.0 463.0 L 109.0 464.0 L 108.0 465.0 L 104.0 465.0 L 103.0 466.0 L 99.0 466.0 L 94.0 468.0 L 90.0 468.0 L 89.0 469.0 L 78.0 471.0 Z"/>
  <path d="M 563.0 449.0 L 557.0 454.0 L 556.0 461.0 L 560.0 467.0 L 565.0 469.0 L 568.0 469.0 L 573.0 467.0 L 576.0 463.0 L 576.0 456.0 L 574.0 452.0 L 569.0 449.0 Z"/>
  <path d="M 658.0 442.0 L 656.0 444.0 L 656.0 446.0 L 658.0 449.0 L 662.0 448.0 L 663.0 444.0 L 661.0 442.0 Z"/>
  <path d="M 1775.0 443.0 L 1772.0 441.0 L 1769.0 444.0 L 1770.0 445.0 L 1774.0 445.0 Z"/>
  <path d="M 674.0 442.0 L 673.0 445.0 L 676.0 449.0 L 678.0 449.0 L 681.0 445.0 L 678.0 441.0 Z"/>
  <path d="M 2066.0 434.0 L 2063.0 428.0 L 2056.0 420.0 L 2051.0 416.0 L 2035.0 409.0 L 2023.0 408.0 L 2022.0 407.0 L 2010.0 407.0 L 2009.0 408.0 L 2003.0 408.0 L 2002.0 409.0 L 1988.0 412.0 L 1968.0 422.0 L 1957.0 430.0 L 1890.0 495.0 L 1867.0 513.0 L 1839.0 530.0 L 1807.0 545.0 L 1802.0 546.0 L 1797.0 549.0 L 1783.0 553.0 L 1777.0 556.0 L 1774.0 556.0 L 1770.0 558.0 L 1767.0 558.0 L 1763.0 560.0 L 1760.0 560.0 L 1756.0 562.0 L 1753.0 562.0 L 1740.0 566.0 L 1736.0 566.0 L 1735.0 567.0 L 1731.0 567.0 L 1730.0 568.0 L 1726.0 568.0 L 1720.0 570.0 L 1715.0 570.0 L 1709.0 572.0 L 1695.0 573.0 L 1735.0 571.0 L 1736.0 570.0 L 1745.0 570.0 L 1746.0 569.0 L 1754.0 569.0 L 1755.0 568.0 L 1762.0 568.0 L 1763.0 567.0 L 1782.0 565.0 L 1783.0 564.0 L 1798.0 562.0 L 1799.0 561.0 L 1803.0 561.0 L 1808.0 559.0 L 1812.0 559.0 L 1813.0 558.0 L 1824.0 556.0 L 1831.0 553.0 L 1838.0 552.0 L 1851.0 547.0 L 1860.0 545.0 L 1863.0 543.0 L 1868.0 542.0 L 1883.0 535.0 L 1885.0 535.0 L 1892.0 531.0 L 1894.0 531.0 L 1915.0 520.0 L 1938.0 505.0 L 1973.0 477.0 L 1987.0 469.0 L 2000.0 465.0 L 2016.0 465.0 L 2025.0 470.0 L 2032.0 463.0 L 2034.0 456.0 L 2033.0 446.0 L 2030.0 440.0 L 2026.0 436.0 L 2027.0 434.0 L 2038.0 435.0 L 2050.0 440.0 L 2060.0 448.0 L 2063.0 453.0 L 2064.0 457.0 L 2066.0 454.0 L 2067.0 444.0 L 2068.0 443.0 L 2067.0 442.0 Z"/>
  <path d="M 439.0 403.0 L 438.0 404.0 L 438.0 409.0 L 440.0 410.0 L 444.0 409.0 L 446.0 405.0 L 444.0 403.0 Z"/>
  <path d="M 1837.0 387.0 L 1833.0 388.0 L 1831.0 392.0 L 1832.0 400.0 L 1836.0 400.0 L 1842.0 393.0 L 1839.0 391.0 Z"/>
  <path d="M 1555.0 386.0 L 1553.0 386.0 L 1553.0 387.0 L 1550.0 389.0 L 1540.0 389.0 L 1538.0 388.0 L 1542.0 390.0 L 1549.0 390.0 Z"/>
  <path d="M 1980.0 369.0 L 1971.0 373.0 L 1969.0 372.0 L 1968.0 374.0 L 1958.0 380.0 L 1954.0 378.0 L 1951.0 378.0 L 1947.0 380.0 L 1947.0 381.0 L 1945.0 382.0 L 1950.0 381.0 L 1951.0 384.0 L 1946.0 388.0 L 1937.0 389.0 L 1940.0 389.0 L 1941.0 392.0 L 1936.0 396.0 L 1933.0 395.0 L 1931.0 392.0 L 1931.0 389.0 L 1934.0 386.0 L 1928.0 391.0 L 1928.0 393.0 L 1925.0 394.0 L 1909.0 410.0 L 1904.0 417.0 L 1905.0 416.0 L 1911.0 416.0 L 1914.0 413.0 L 1915.0 413.0 L 1917.0 416.0 L 1912.0 422.0 L 1904.0 423.0 L 1901.0 421.0 L 1902.0 419.0 L 1898.0 423.0 L 1887.0 437.0 L 1871.0 454.0 L 1870.0 457.0 L 1868.0 458.0 L 1869.0 459.0 L 1868.0 461.0 L 1870.0 462.0 L 1869.0 465.0 L 1871.0 467.0 L 1875.0 464.0 L 1901.0 435.0 L 1899.0 437.0 L 1897.0 436.0 L 1891.0 437.0 L 1890.0 434.0 L 1893.0 430.0 L 1895.0 431.0 L 1898.0 429.0 L 1903.0 429.0 L 1904.0 431.0 L 1923.0 409.0 L 1943.0 390.0 L 1960.0 378.0 Z M 1884.0 453.0 L 1879.0 459.0 L 1875.0 460.0 L 1873.0 457.0 L 1874.0 454.0 L 1876.0 455.0 L 1877.0 453.0 L 1879.0 454.0 L 1882.0 452.0 Z M 1879.0 446.0 L 1880.0 445.0 L 1884.0 445.0 L 1886.0 446.0 L 1887.0 448.0 L 1884.0 449.0 L 1883.0 448.0 L 1880.0 448.0 Z M 1917.0 403.0 L 1922.0 400.0 L 1926.0 400.0 L 1928.0 404.0 L 1926.0 406.0 L 1921.0 407.0 L 1919.0 406.0 Z"/>
  <path d="M 784.0 386.0 L 777.0 371.0 L 770.0 361.0 L 759.0 350.0 L 752.0 345.0 L 735.0 337.0 L 725.0 334.0 L 721.0 334.0 L 720.0 333.0 L 707.0 332.0 L 706.0 333.0 L 697.0 333.0 L 696.0 334.0 L 684.0 336.0 L 678.0 338.0 L 663.0 346.0 L 654.0 353.0 L 643.0 365.0 L 633.0 383.0 L 630.0 393.0 L 629.0 403.0 L 628.0 404.0 L 628.0 417.0 L 629.0 418.0 L 630.0 427.0 L 633.0 435.0 L 632.0 436.0 L 630.0 435.0 L 627.0 427.0 L 627.0 424.0 L 624.0 415.0 L 624.0 404.0 L 621.0 402.0 L 621.0 398.0 L 621.0 404.0 L 622.0 405.0 L 622.0 413.0 L 620.0 418.0 L 621.0 429.0 L 628.0 441.0 L 634.0 441.0 L 637.0 443.0 L 648.0 431.0 L 658.0 426.0 L 665.0 424.0 L 671.0 424.0 L 672.0 423.0 L 681.0 423.0 L 682.0 424.0 L 691.0 425.0 L 701.0 429.0 L 712.0 438.0 L 717.0 446.0 L 726.0 436.0 L 736.0 432.0 L 746.0 432.0 L 759.0 437.0 L 765.0 443.0 L 768.0 448.0 L 775.0 440.0 L 783.0 436.0 L 786.0 428.0 L 786.0 423.0 L 788.0 416.0 L 788.0 405.0 L 787.0 404.0 L 787.0 398.0 L 786.0 397.0 L 786.0 393.0 Z M 760.0 413.0 L 762.0 412.0 L 768.0 412.0 L 772.0 416.0 L 773.0 420.0 L 768.0 426.0 L 762.0 426.0 L 758.0 422.0 L 758.0 416.0 Z M 646.0 407.0 L 649.0 407.0 L 652.0 410.0 L 652.0 413.0 L 649.0 416.0 L 646.0 416.0 L 643.0 413.0 L 643.0 410.0 Z M 697.0 396.0 L 701.0 397.0 L 706.0 403.0 L 706.0 409.0 L 705.0 411.0 L 701.0 414.0 L 696.0 414.0 L 690.0 409.0 L 690.0 402.0 L 694.0 397.0 Z"/>
  <path d="M 382.0 332.0 L 377.0 336.0 L 376.0 338.0 L 376.0 344.0 L 380.0 349.0 L 382.0 350.0 L 388.0 350.0 L 391.0 348.0 L 393.0 345.0 L 393.0 337.0 L 387.0 332.0 Z"/>
  <path d="M 333.0 317.0 L 330.0 321.0 L 331.0 326.0 L 333.0 328.0 L 339.0 328.0 L 342.0 324.0 L 341.0 319.0 L 338.0 317.0 Z"/>
  <path d="M 1821.0 316.0 L 1819.0 317.0 L 1816.0 321.0 L 1815.0 324.0 L 1816.0 329.0 L 1821.0 333.0 L 1828.0 333.0 L 1831.0 331.0 L 1833.0 327.0 L 1833.0 322.0 L 1829.0 317.0 L 1827.0 316.0 Z"/>
  <path d="M 765.0 281.0 L 784.0 283.0 L 785.0 284.0 L 802.0 286.0 L 803.0 287.0 L 813.0 288.0 L 819.0 290.0 L 824.0 290.0 L 830.0 292.0 L 835.0 292.0 L 840.0 294.0 L 844.0 294.0 L 845.0 295.0 L 849.0 295.0 L 850.0 296.0 L 854.0 296.0 L 855.0 297.0 L 859.0 297.0 L 860.0 298.0 L 864.0 298.0 L 865.0 299.0 L 869.0 299.0 L 870.0 300.0 L 874.0 300.0 L 875.0 301.0 L 879.0 301.0 L 880.0 302.0 L 884.0 302.0 L 890.0 304.0 L 895.0 304.0 L 896.0 305.0 L 900.0 305.0 L 906.0 307.0 L 912.0 307.0 L 913.0 308.0 L 922.0 309.0 L 929.0 312.0 L 928.0 314.0 L 922.0 314.0 L 921.0 315.0 L 912.0 316.0 L 925.0 316.0 L 926.0 315.0 L 932.0 315.0 L 933.0 314.0 L 949.0 312.0 L 950.0 311.0 L 967.0 310.0 L 965.0 309.0 L 960.0 309.0 L 959.0 308.0 L 954.0 308.0 L 953.0 307.0 L 947.0 307.0 L 946.0 306.0 L 929.0 304.0 L 928.0 303.0 L 922.0 303.0 L 916.0 301.0 L 910.0 301.0 L 909.0 300.0 L 904.0 300.0 L 897.0 298.0 L 891.0 298.0 L 890.0 297.0 L 873.0 295.0 L 872.0 294.0 L 858.0 293.0 L 851.0 291.0 L 845.0 291.0 L 844.0 290.0 L 838.0 290.0 L 837.0 289.0 L 831.0 289.0 L 830.0 288.0 L 824.0 288.0 L 823.0 287.0 L 816.0 287.0 L 815.0 286.0 L 808.0 286.0 L 807.0 285.0 L 799.0 285.0 L 798.0 284.0 L 792.0 284.0 L 791.0 283.0 Z"/>
  <path d="M 646.0 230.0 L 643.0 233.0 L 643.0 239.0 L 648.0 242.0 L 652.0 241.0 L 653.0 240.0 L 650.0 241.0 L 643.0 238.0 L 643.0 233.0 L 645.0 231.0 L 652.0 231.0 L 653.0 232.0 L 650.0 230.0 Z"/>
  <path d="M 459.0 275.0 L 473.0 291.0 L 473.0 300.0 L 474.0 301.0 L 474.0 306.0 L 475.0 307.0 L 475.0 311.0 L 477.0 317.0 L 477.0 320.0 L 476.0 321.0 L 471.0 322.0 L 457.0 328.0 L 460.0 345.0 L 462.0 349.0 L 463.0 356.0 L 469.0 374.0 L 468.0 381.0 L 474.0 391.0 L 474.0 393.0 L 480.0 406.0 L 484.0 412.0 L 495.0 421.0 L 509.0 430.0 L 500.0 443.0 L 487.0 442.0 L 483.0 444.0 L 476.0 445.0 L 471.0 438.0 L 466.0 438.0 L 463.0 440.0 L 468.0 445.0 L 472.0 451.0 L 474.0 451.0 L 485.0 446.0 L 493.0 446.0 L 501.0 449.0 L 506.0 438.0 L 514.0 428.0 L 521.0 422.0 L 528.0 418.0 L 527.0 416.0 L 523.0 415.0 L 515.0 410.0 L 513.0 410.0 L 510.0 413.0 L 504.0 413.0 L 499.0 407.0 L 499.0 401.0 L 500.0 399.0 L 488.0 392.0 L 489.0 390.0 L 493.0 391.0 L 502.0 396.0 L 504.0 395.0 L 510.0 395.0 L 515.0 400.0 L 516.0 406.0 L 532.0 414.0 L 531.0 416.0 L 540.0 412.0 L 547.0 410.0 L 551.0 410.0 L 552.0 409.0 L 571.0 409.0 L 572.0 410.0 L 584.0 412.0 L 597.0 418.0 L 603.0 422.0 L 616.0 435.0 L 620.0 443.0 L 623.0 443.0 L 624.0 442.0 L 617.0 431.0 L 616.0 423.0 L 615.0 422.0 L 615.0 416.0 L 614.0 415.0 L 615.0 397.0 L 616.0 396.0 L 616.0 392.0 L 620.0 378.0 L 627.0 364.0 L 634.0 354.0 L 641.0 346.0 L 650.0 338.0 L 670.0 326.0 L 684.0 321.0 L 692.0 320.0 L 693.0 319.0 L 717.0 318.0 L 718.0 319.0 L 723.0 319.0 L 724.0 320.0 L 728.0 320.0 L 736.0 323.0 L 739.0 323.0 L 754.0 330.0 L 766.0 338.0 L 785.0 358.0 L 790.0 366.0 L 796.0 379.0 L 800.0 393.0 L 800.0 397.0 L 801.0 398.0 L 801.0 422.0 L 800.0 423.0 L 800.0 427.0 L 798.0 434.0 L 809.0 437.0 L 815.0 441.0 L 822.0 449.0 L 823.0 453.0 L 827.0 453.0 L 828.0 451.0 L 833.0 447.0 L 842.0 444.0 L 849.0 444.0 L 856.0 446.0 L 861.0 449.0 L 869.0 457.0 L 872.0 463.0 L 872.0 467.0 L 882.0 465.0 L 893.0 458.0 L 899.0 457.0 L 905.0 459.0 L 906.0 458.0 L 923.0 455.0 L 932.0 452.0 L 947.0 450.0 L 948.0 449.0 L 953.0 449.0 L 954.0 448.0 L 964.0 447.0 L 965.0 446.0 L 970.0 446.0 L 971.0 445.0 L 997.0 443.0 L 998.0 442.0 L 1009.0 442.0 L 1010.0 441.0 L 1063.0 441.0 L 1064.0 442.0 L 1084.0 443.0 L 1085.0 444.0 L 1091.0 444.0 L 1092.0 445.0 L 1110.0 447.0 L 1111.0 448.0 L 1129.0 451.0 L 1130.0 452.0 L 1145.0 455.0 L 1149.0 457.0 L 1152.0 457.0 L 1156.0 459.0 L 1159.0 459.0 L 1163.0 461.0 L 1166.0 461.0 L 1210.0 476.0 L 1218.0 480.0 L 1226.0 482.0 L 1229.0 484.0 L 1239.0 487.0 L 1242.0 489.0 L 1244.0 489.0 L 1247.0 491.0 L 1257.0 494.0 L 1276.0 502.0 L 1279.0 502.0 L 1287.0 498.0 L 1299.0 498.0 L 1308.0 502.0 L 1313.0 503.0 L 1314.0 496.0 L 1319.0 486.0 L 1327.0 478.0 L 1338.0 472.0 L 1341.0 472.0 L 1342.0 471.0 L 1355.0 471.0 L 1365.0 475.0 L 1372.0 481.0 L 1373.0 480.0 L 1379.0 480.0 L 1382.0 482.0 L 1391.0 467.0 L 1399.0 460.0 L 1408.0 455.0 L 1421.0 451.0 L 1440.0 451.0 L 1453.0 455.0 L 1454.0 452.0 L 1459.0 448.0 L 1462.0 451.0 L 1462.0 456.0 L 1460.0 459.0 L 1473.0 471.0 L 1480.0 485.0 L 1483.0 482.0 L 1481.0 481.0 L 1480.0 478.0 L 1492.0 465.0 L 1493.0 461.0 L 1495.0 459.0 L 1501.0 445.0 L 1501.0 442.0 L 1503.0 437.0 L 1503.0 430.0 L 1504.0 429.0 L 1503.0 413.0 L 1502.0 412.0 L 1501.0 405.0 L 1494.0 390.0 L 1485.0 378.0 L 1477.0 371.0 L 1468.0 365.0 L 1452.0 359.0 L 1441.0 358.0 L 1440.0 357.0 L 1422.0 358.0 L 1409.0 362.0 L 1393.0 371.0 L 1378.0 387.0 L 1370.0 402.0 L 1368.0 412.0 L 1367.0 413.0 L 1367.0 418.0 L 1366.0 419.0 L 1367.0 438.0 L 1375.0 460.0 L 1364.0 465.0 L 1361.0 462.0 L 1358.0 454.0 L 1355.0 457.0 L 1351.0 456.0 L 1348.0 452.0 L 1348.0 450.0 L 1353.0 445.0 L 1355.0 445.0 L 1354.0 437.0 L 1353.0 436.0 L 1353.0 415.0 L 1354.0 414.0 L 1355.0 405.0 L 1358.0 396.0 L 1365.0 382.0 L 1371.0 374.0 L 1384.0 361.0 L 1394.0 354.0 L 1402.0 350.0 L 1413.0 346.0 L 1422.0 345.0 L 1423.0 344.0 L 1446.0 344.0 L 1447.0 345.0 L 1456.0 346.0 L 1470.0 351.0 L 1486.0 361.0 L 1499.0 374.0 L 1510.0 392.0 L 1516.0 412.0 L 1516.0 419.0 L 1517.0 420.0 L 1516.0 438.0 L 1511.0 456.0 L 1503.0 471.0 L 1495.0 480.0 L 1504.0 481.0 L 1513.0 485.0 L 1521.0 493.0 L 1524.0 498.0 L 1525.0 503.0 L 1529.0 503.0 L 1533.0 498.0 L 1539.0 495.0 L 1542.0 495.0 L 1543.0 494.0 L 1556.0 494.0 L 1565.0 498.0 L 1573.0 506.0 L 1576.0 513.0 L 1580.0 513.0 L 1585.0 504.0 L 1593.0 497.0 L 1599.0 494.0 L 1602.0 494.0 L 1603.0 493.0 L 1614.0 493.0 L 1623.0 496.0 L 1627.0 487.0 L 1635.0 478.0 L 1648.0 470.0 L 1658.0 467.0 L 1676.0 467.0 L 1677.0 468.0 L 1681.0 468.0 L 1687.0 470.0 L 1699.0 477.0 L 1705.0 483.0 L 1710.0 491.0 L 1716.0 488.0 L 1718.0 489.0 L 1723.0 489.0 L 1726.0 484.0 L 1730.0 480.0 L 1740.0 475.0 L 1744.0 475.0 L 1745.0 474.0 L 1755.0 475.0 L 1763.0 479.0 L 1766.0 482.0 L 1768.0 477.0 L 1771.0 474.0 L 1771.0 473.0 L 1755.0 473.0 L 1754.0 472.0 L 1704.0 472.0 L 1703.0 471.0 L 1704.0 469.0 L 1712.0 468.0 L 1714.0 467.0 L 1717.0 463.0 L 1715.0 461.0 L 1703.0 455.0 L 1693.0 444.0 L 1702.0 425.0 L 1703.0 419.0 L 1706.0 417.0 L 1711.0 416.0 L 1715.0 412.0 L 1716.0 408.0 L 1699.0 393.0 L 1671.0 373.0 L 1649.0 361.0 L 1647.0 359.0 L 1621.0 346.0 L 1619.0 346.0 L 1605.0 339.0 L 1603.0 339.0 L 1590.0 333.0 L 1582.0 331.0 L 1579.0 329.0 L 1538.0 316.0 L 1535.0 316.0 L 1514.0 310.0 L 1490.0 306.0 L 1489.0 305.0 L 1484.0 305.0 L 1483.0 304.0 L 1478.0 304.0 L 1477.0 303.0 L 1466.0 302.0 L 1465.0 301.0 L 1443.0 299.0 L 1434.0 294.0 L 1432.0 294.0 L 1425.0 290.0 L 1416.0 287.0 L 1393.0 276.0 L 1391.0 276.0 L 1381.0 271.0 L 1379.0 271.0 L 1356.0 261.0 L 1351.0 260.0 L 1348.0 258.0 L 1326.0 251.0 L 1323.0 249.0 L 1320.0 249.0 L 1317.0 247.0 L 1314.0 247.0 L 1298.0 241.0 L 1295.0 241.0 L 1285.0 237.0 L 1274.0 235.0 L 1270.0 233.0 L 1267.0 233.0 L 1254.0 229.0 L 1250.0 229.0 L 1245.0 227.0 L 1236.0 226.0 L 1235.0 225.0 L 1219.0 223.0 L 1218.0 222.0 L 1212.0 222.0 L 1211.0 221.0 L 1205.0 221.0 L 1204.0 220.0 L 1198.0 220.0 L 1197.0 219.0 L 1178.0 218.0 L 1177.0 217.0 L 1153.0 216.0 L 1152.0 215.0 L 1134.0 215.0 L 1133.0 214.0 L 1066.0 214.0 L 1065.0 215.0 L 1019.0 216.0 L 1018.0 217.0 L 1006.0 217.0 L 1005.0 218.0 L 992.0 218.0 L 991.0 219.0 L 970.0 220.0 L 969.0 221.0 L 961.0 221.0 L 960.0 222.0 L 943.0 223.0 L 942.0 224.0 L 935.0 224.0 L 934.0 225.0 L 917.0 226.0 L 916.0 227.0 L 909.0 227.0 L 908.0 228.0 L 901.0 228.0 L 900.0 229.0 L 892.0 229.0 L 891.0 230.0 L 885.0 230.0 L 884.0 231.0 L 870.0 232.0 L 869.0 233.0 L 855.0 234.0 L 854.0 235.0 L 842.0 236.0 L 835.0 238.0 L 829.0 238.0 L 828.0 239.0 L 823.0 239.0 L 822.0 240.0 L 817.0 240.0 L 816.0 241.0 L 787.0 245.0 L 781.0 247.0 L 743.0 249.0 L 742.0 250.0 L 733.0 250.0 L 732.0 251.0 L 706.0 253.0 L 705.0 254.0 L 698.0 254.0 L 697.0 255.0 L 682.0 256.0 L 681.0 257.0 L 675.0 257.0 L 674.0 258.0 L 668.0 258.0 L 667.0 259.0 L 660.0 259.0 L 659.0 260.0 L 628.0 263.0 L 627.0 264.0 L 613.0 265.0 L 612.0 266.0 L 606.0 266.0 L 605.0 267.0 L 599.0 267.0 L 598.0 268.0 L 591.0 268.0 L 590.0 269.0 L 584.0 269.0 L 577.0 271.0 L 571.0 271.0 L 570.0 272.0 L 564.0 272.0 L 563.0 273.0 L 557.0 273.0 L 556.0 274.0 L 550.0 274.0 L 549.0 275.0 L 533.0 276.0 L 532.0 277.0 L 510.0 278.0 L 509.0 279.0 L 474.0 280.0 Z M 1292.0 481.0 L 1296.0 481.0 L 1300.0 486.0 L 1299.0 489.0 L 1296.0 492.0 L 1292.0 492.0 L 1288.0 488.0 L 1289.0 483.0 Z M 1532.0 473.0 L 1535.0 473.0 L 1539.0 477.0 L 1538.0 481.0 L 1535.0 483.0 L 1532.0 482.0 L 1529.0 478.0 L 1529.0 476.0 Z M 1574.0 472.0 L 1579.0 472.0 L 1581.0 473.0 L 1585.0 478.0 L 1585.0 483.0 L 1580.0 489.0 L 1574.0 489.0 L 1570.0 486.0 L 1568.0 482.0 L 1568.0 479.0 L 1570.0 475.0 Z M 1580.0 467.0 L 1581.0 466.0 L 1632.0 466.0 L 1633.0 467.0 L 1636.0 467.0 L 1637.0 469.0 L 1633.0 472.0 L 1610.0 472.0 L 1608.0 473.0 L 1601.0 470.0 L 1581.0 469.0 Z M 1283.0 472.0 L 1282.0 473.0 L 1270.0 473.0 L 1269.0 472.0 L 1266.0 472.0 L 1266.0 476.0 L 1261.0 482.0 L 1259.0 483.0 L 1252.0 483.0 L 1246.0 478.0 L 1244.0 471.0 L 1223.0 470.0 L 1222.0 469.0 L 1218.0 469.0 L 1208.0 466.0 L 1202.0 466.0 L 1201.0 464.0 L 1202.0 463.0 L 1209.0 463.0 L 1210.0 464.0 L 1248.0 464.0 L 1251.0 462.0 L 1256.0 461.0 L 1261.0 463.0 L 1266.0 469.0 L 1269.0 469.0 L 1270.0 470.0 L 1282.0 470.0 Z M 1511.0 463.0 L 1514.0 460.0 L 1519.0 459.0 L 1523.0 462.0 L 1524.0 465.0 L 1520.0 469.0 L 1516.0 469.0 L 1512.0 466.0 Z M 1527.0 463.0 L 1530.0 453.0 L 1531.0 444.0 L 1533.0 442.0 L 1550.0 443.0 L 1557.0 445.0 L 1556.0 447.0 L 1547.0 447.0 L 1546.0 448.0 L 1535.0 449.0 L 1530.0 463.0 L 1529.0 464.0 Z M 884.0 445.0 L 888.0 441.0 L 892.0 441.0 L 895.0 444.0 L 896.0 448.0 L 894.0 451.0 L 888.0 452.0 L 884.0 448.0 Z M 1467.0 445.0 L 1471.0 440.0 L 1477.0 440.0 L 1481.0 444.0 L 1481.0 446.0 L 1476.0 451.0 L 1470.0 450.0 Z M 1384.0 442.0 L 1387.0 439.0 L 1392.0 439.0 L 1395.0 442.0 L 1395.0 446.0 L 1392.0 449.0 L 1387.0 449.0 L 1384.0 446.0 Z M 1431.0 420.0 L 1437.0 421.0 L 1440.0 425.0 L 1440.0 429.0 L 1436.0 433.0 L 1431.0 433.0 L 1427.0 429.0 L 1427.0 424.0 Z M 851.0 420.0 L 854.0 420.0 L 857.0 422.0 L 860.0 426.0 L 859.0 431.0 L 855.0 435.0 L 850.0 435.0 L 848.0 434.0 L 845.0 430.0 L 845.0 425.0 L 846.0 423.0 Z M 809.0 418.0 L 811.0 418.0 L 814.0 421.0 L 814.0 423.0 L 811.0 426.0 L 809.0 426.0 L 806.0 424.0 L 806.0 421.0 Z M 1600.0 425.0 L 1618.0 410.0 L 1625.0 406.0 L 1628.0 403.0 L 1630.0 403.0 L 1631.0 405.0 L 1619.0 415.0 L 1609.0 426.0 L 1611.0 427.0 L 1611.0 425.0 L 1624.0 413.0 L 1625.0 415.0 L 1613.0 429.0 L 1624.0 436.0 L 1640.0 449.0 L 1662.0 450.0 L 1663.0 451.0 L 1670.0 451.0 L 1677.0 453.0 L 1686.0 453.0 L 1689.0 454.0 L 1685.0 449.0 L 1685.0 448.0 L 1687.0 447.0 L 1691.0 450.0 L 1698.0 458.0 L 1697.0 459.0 L 1691.0 459.0 L 1690.0 460.0 L 1674.0 460.0 L 1673.0 459.0 L 1657.0 459.0 L 1655.0 460.0 L 1654.0 459.0 L 1646.0 459.0 L 1643.0 458.0 L 1611.0 433.0 L 1601.0 427.0 Z M 1020.0 398.0 L 1022.0 399.0 L 1028.0 409.0 L 1027.0 412.0 L 1024.0 410.0 L 1019.0 400.0 Z M 595.0 398.0 L 597.0 399.0 L 597.0 403.0 L 596.0 404.0 L 594.0 403.0 L 594.0 399.0 Z M 598.0 387.0 L 599.0 388.0 L 599.0 392.0 L 598.0 393.0 L 598.0 397.0 L 596.0 398.0 L 595.0 397.0 L 595.0 391.0 L 596.0 388.0 Z M 570.0 386.0 L 575.0 382.0 L 579.0 382.0 L 584.0 388.0 L 583.0 394.0 L 580.0 396.0 L 575.0 396.0 L 570.0 392.0 Z M 1347.0 380.0 L 1348.0 382.0 L 1344.0 390.0 L 1338.0 411.0 L 1338.0 417.0 L 1337.0 418.0 L 1337.0 435.0 L 1334.0 436.0 L 1333.0 435.0 L 1333.0 419.0 L 1334.0 418.0 L 1335.0 407.0 L 1340.0 391.0 L 1345.0 381.0 Z M 822.0 372.0 L 824.0 373.0 L 830.0 392.0 L 831.0 402.0 L 832.0 403.0 L 832.0 409.0 L 831.0 410.0 L 829.0 409.0 L 828.0 397.0 L 826.0 393.0 L 826.0 389.0 L 824.0 385.0 L 824.0 382.0 L 821.0 375.0 Z M 1612.0 371.0 L 1615.0 370.0 L 1616.0 371.0 L 1626.0 372.0 L 1627.0 373.0 L 1631.0 373.0 L 1635.0 375.0 L 1638.0 375.0 L 1641.0 377.0 L 1645.0 382.0 L 1644.0 383.0 L 1636.0 383.0 L 1635.0 382.0 L 1631.0 382.0 L 1627.0 380.0 L 1624.0 380.0 L 1616.0 376.0 Z M 804.0 355.0 L 805.0 355.0 L 808.0 359.0 L 815.0 373.0 L 821.0 391.0 L 822.0 403.0 L 823.0 404.0 L 823.0 417.0 L 822.0 418.0 L 822.0 424.0 L 820.0 430.0 L 818.0 429.0 L 819.0 407.0 L 818.0 406.0 L 818.0 399.0 L 817.0 398.0 L 816.0 388.0 L 810.0 370.0 L 807.0 365.0 L 806.0 361.0 L 803.0 357.0 Z M 482.0 344.0 L 484.0 343.0 L 508.0 351.0 L 515.0 355.0 L 518.0 358.0 L 519.0 361.0 L 517.0 362.0 L 509.0 356.0 L 500.0 353.0 L 495.0 350.0 L 483.0 346.0 Z M 465.0 339.0 L 468.0 341.0 L 468.0 344.0 L 473.0 359.0 L 472.0 362.0 L 470.0 361.0 L 469.0 356.0 L 467.0 353.0 L 467.0 350.0 L 464.0 341.0 Z M 622.0 338.0 L 623.0 341.0 L 613.0 355.0 L 607.0 366.0 L 607.0 368.0 L 602.0 379.0 L 601.0 385.0 L 599.0 387.0 L 597.0 387.0 L 596.0 386.0 L 596.0 383.0 L 601.0 368.0 L 608.0 354.0 L 612.0 348.0 L 619.0 340.0 Z M 959.0 335.0 L 966.0 333.0 L 990.0 333.0 L 991.0 334.0 L 989.0 339.0 L 990.0 344.0 L 1001.0 366.0 L 1019.0 395.0 L 1018.0 397.0 L 1014.0 397.0 L 1005.0 394.0 L 993.0 388.0 L 982.0 378.0 L 961.0 346.0 L 957.0 338.0 Z M 1012.0 325.0 L 1013.0 324.0 L 1026.0 325.0 L 1027.0 327.0 L 1026.0 328.0 L 1019.0 328.0 L 1018.0 327.0 L 1013.0 327.0 Z M 1039.0 325.0 L 1036.0 329.0 L 1028.0 329.0 L 1027.0 328.0 L 1028.0 326.0 L 1035.0 326.0 L 1036.0 323.0 Z M 464.0 329.0 L 482.0 323.0 L 488.0 326.0 L 491.0 326.0 L 510.0 333.0 L 522.0 335.0 L 525.0 337.0 L 536.0 340.0 L 539.0 342.0 L 538.0 344.0 L 530.0 343.0 L 529.0 342.0 L 515.0 342.0 L 514.0 341.0 L 506.0 341.0 L 505.0 340.0 L 496.0 340.0 L 501.0 341.0 L 504.0 343.0 L 512.0 345.0 L 515.0 347.0 L 527.0 351.0 L 536.0 352.0 L 537.0 353.0 L 546.0 353.0 L 553.0 360.0 L 569.0 370.0 L 570.0 372.0 L 568.0 373.0 L 541.0 358.0 L 538.0 358.0 L 535.0 356.0 L 532.0 356.0 L 521.0 352.0 L 510.0 350.0 L 501.0 346.0 L 498.0 346.0 L 484.0 339.0 L 465.0 332.0 Z M 1004.0 321.0 L 1006.0 320.0 L 1011.0 323.0 L 1012.0 325.0 L 1009.0 326.0 L 1007.0 325.0 Z M 1497.0 315.0 L 1498.0 314.0 L 1501.0 314.0 L 1502.0 315.0 L 1516.0 317.0 L 1520.0 319.0 L 1540.0 323.0 L 1567.0 332.0 L 1570.0 332.0 L 1573.0 334.0 L 1592.0 340.0 L 1644.0 364.0 L 1646.0 366.0 L 1658.0 372.0 L 1659.0 374.0 L 1656.0 376.0 L 1649.0 376.0 L 1643.0 374.0 L 1604.0 354.0 L 1602.0 354.0 L 1576.0 342.0 L 1565.0 339.0 L 1562.0 337.0 L 1533.0 327.0 L 1530.0 327.0 L 1511.0 320.0 L 1498.0 317.0 Z M 1493.0 314.0 L 1496.0 313.0 L 1497.0 315.0 L 1494.0 316.0 Z M 494.0 294.0 L 495.0 293.0 L 498.0 293.0 L 499.0 294.0 L 514.0 297.0 L 520.0 299.0 L 521.0 301.0 L 520.0 302.0 L 513.0 301.0 L 502.0 297.0 L 495.0 296.0 Z M 490.0 293.0 L 493.0 292.0 L 494.0 294.0 L 491.0 295.0 Z M 478.0 292.0 L 480.0 293.0 L 482.0 300.0 L 482.0 304.0 L 487.0 319.0 L 487.0 322.0 L 486.0 323.0 L 483.0 322.0 L 483.0 319.0 L 480.0 310.0 L 480.0 306.0 L 479.0 305.0 L 479.0 301.0 L 478.0 300.0 L 478.0 296.0 L 477.0 295.0 Z M 486.0 292.0 L 489.0 291.0 L 490.0 293.0 L 487.0 294.0 Z M 929.0 260.0 L 928.0 262.0 L 924.0 264.0 L 921.0 263.0 L 921.0 262.0 L 927.0 259.0 Z M 949.0 258.0 L 950.0 260.0 L 944.0 263.0 L 941.0 266.0 L 940.0 269.0 L 937.0 267.0 L 942.0 261.0 Z M 950.0 259.0 L 950.0 258.0 L 953.0 256.0 L 955.0 257.0 L 955.0 258.0 L 952.0 260.0 Z M 956.0 256.0 L 959.0 255.0 L 960.0 257.0 L 957.0 258.0 Z M 971.0 254.0 L 970.0 256.0 L 967.0 257.0 L 961.0 257.0 L 960.0 256.0 L 961.0 254.0 L 967.0 254.0 L 968.0 253.0 Z M 1057.0 243.0 L 1057.0 245.0 L 1034.0 283.0 L 1024.0 282.0 L 1023.0 281.0 L 1008.0 279.0 L 1002.0 277.0 L 997.0 277.0 L 996.0 276.0 L 991.0 276.0 L 990.0 275.0 L 985.0 275.0 L 984.0 274.0 L 963.0 272.0 L 957.0 270.0 L 958.0 268.0 L 967.0 264.0 L 976.0 257.0 L 979.0 256.0 L 983.0 256.0 L 999.0 251.0 L 1003.0 251.0 L 1004.0 250.0 L 1008.0 250.0 L 1014.0 248.0 L 1019.0 248.0 L 1020.0 247.0 L 1024.0 247.0 L 1030.0 245.0 L 1035.0 245.0 L 1041.0 243.0 L 1048.0 243.0 L 1049.0 242.0 L 1056.0 242.0 Z M 1040.0 281.0 L 1054.0 253.0 L 1062.0 241.0 L 1068.0 241.0 L 1069.0 240.0 L 1086.0 240.0 L 1087.0 239.0 L 1110.0 239.0 L 1111.0 238.0 L 1130.0 238.0 L 1131.0 239.0 L 1161.0 240.0 L 1162.0 241.0 L 1170.0 241.0 L 1171.0 242.0 L 1177.0 242.0 L 1178.0 243.0 L 1192.0 244.0 L 1193.0 245.0 L 1198.0 245.0 L 1208.0 248.0 L 1217.0 249.0 L 1261.0 262.0 L 1264.0 264.0 L 1272.0 266.0 L 1277.0 269.0 L 1284.0 271.0 L 1296.0 277.0 L 1298.0 277.0 L 1330.0 293.0 L 1332.0 295.0 L 1352.0 306.0 L 1354.0 308.0 L 1354.0 310.0 L 1346.0 313.0 L 1343.0 313.0 L 1334.0 316.0 L 1330.0 316.0 L 1325.0 318.0 L 1311.0 319.0 L 1307.0 322.0 L 1306.0 321.0 L 1306.0 318.0 L 1315.0 311.0 L 1319.0 304.0 L 1316.0 304.0 L 1315.0 303.0 L 1302.0 303.0 L 1301.0 302.0 L 1289.0 302.0 L 1288.0 301.0 L 1273.0 301.0 L 1272.0 300.0 L 1262.0 300.0 L 1260.0 299.0 L 1261.0 308.0 L 1263.0 312.0 L 1267.0 315.0 L 1266.0 317.0 L 1264.0 317.0 L 1263.0 316.0 L 1257.0 316.0 L 1256.0 315.0 L 1250.0 315.0 L 1249.0 314.0 L 1243.0 314.0 L 1242.0 313.0 L 1236.0 313.0 L 1235.0 312.0 L 1227.0 312.0 L 1226.0 311.0 L 1220.0 311.0 L 1219.0 310.0 L 1197.0 308.0 L 1196.0 307.0 L 1183.0 306.0 L 1176.0 304.0 L 1169.0 304.0 L 1168.0 303.0 L 1162.0 303.0 L 1155.0 301.0 L 1128.0 298.0 L 1121.0 296.0 L 1094.0 293.0 L 1093.0 292.0 L 1081.0 291.0 L 1080.0 290.0 L 1068.0 289.0 L 1067.0 288.0 L 1061.0 288.0 L 1054.0 286.0 L 1048.0 286.0 L 1047.0 285.0 L 1042.0 285.0 L 1040.0 283.0 Z M 494.0 285.0 L 495.0 284.0 L 502.0 284.0 L 503.0 283.0 L 523.0 283.0 L 524.0 282.0 L 536.0 282.0 L 537.0 281.0 L 542.0 281.0 L 543.0 283.0 L 547.0 283.0 L 548.0 282.0 L 570.0 279.0 L 571.0 278.0 L 576.0 278.0 L 577.0 277.0 L 583.0 277.0 L 584.0 276.0 L 590.0 276.0 L 591.0 275.0 L 597.0 275.0 L 598.0 274.0 L 604.0 274.0 L 605.0 273.0 L 611.0 273.0 L 612.0 272.0 L 618.0 272.0 L 619.0 271.0 L 625.0 271.0 L 626.0 270.0 L 633.0 270.0 L 634.0 269.0 L 640.0 269.0 L 641.0 268.0 L 648.0 268.0 L 649.0 267.0 L 655.0 267.0 L 656.0 266.0 L 663.0 266.0 L 664.0 265.0 L 671.0 265.0 L 672.0 264.0 L 679.0 264.0 L 680.0 263.0 L 687.0 263.0 L 688.0 262.0 L 696.0 262.0 L 697.0 261.0 L 703.0 261.0 L 704.0 260.0 L 714.0 260.0 L 715.0 259.0 L 723.0 259.0 L 724.0 258.0 L 732.0 258.0 L 733.0 257.0 L 743.0 257.0 L 744.0 256.0 L 754.0 256.0 L 755.0 255.0 L 766.0 255.0 L 767.0 254.0 L 797.0 254.0 L 802.0 252.0 L 808.0 252.0 L 809.0 251.0 L 814.0 251.0 L 821.0 249.0 L 827.0 249.0 L 828.0 248.0 L 834.0 248.0 L 835.0 247.0 L 841.0 247.0 L 842.0 246.0 L 848.0 246.0 L 849.0 245.0 L 855.0 245.0 L 856.0 244.0 L 862.0 244.0 L 863.0 243.0 L 869.0 243.0 L 870.0 242.0 L 877.0 242.0 L 878.0 241.0 L 885.0 241.0 L 886.0 240.0 L 893.0 240.0 L 894.0 239.0 L 901.0 239.0 L 902.0 238.0 L 909.0 238.0 L 910.0 237.0 L 918.0 237.0 L 919.0 236.0 L 926.0 236.0 L 927.0 235.0 L 934.0 235.0 L 935.0 234.0 L 942.0 234.0 L 943.0 233.0 L 960.0 232.0 L 961.0 231.0 L 970.0 231.0 L 971.0 230.0 L 979.0 230.0 L 980.0 229.0 L 991.0 229.0 L 992.0 228.0 L 1002.0 228.0 L 1003.0 227.0 L 1014.0 227.0 L 1015.0 226.0 L 1026.0 226.0 L 1027.0 225.0 L 1042.0 225.0 L 1043.0 224.0 L 1063.0 224.0 L 1064.0 223.0 L 1147.0 223.0 L 1148.0 224.0 L 1164.0 224.0 L 1165.0 225.0 L 1186.0 226.0 L 1187.0 227.0 L 1195.0 227.0 L 1196.0 228.0 L 1202.0 228.0 L 1203.0 229.0 L 1209.0 229.0 L 1210.0 230.0 L 1215.0 230.0 L 1221.0 232.0 L 1232.0 233.0 L 1237.0 235.0 L 1241.0 235.0 L 1250.0 238.0 L 1262.0 240.0 L 1286.0 248.0 L 1289.0 248.0 L 1325.0 260.0 L 1328.0 262.0 L 1333.0 263.0 L 1336.0 265.0 L 1341.0 266.0 L 1344.0 268.0 L 1349.0 269.0 L 1352.0 271.0 L 1374.0 279.0 L 1397.0 290.0 L 1409.0 294.0 L 1419.0 299.0 L 1420.0 301.0 L 1419.0 302.0 L 1400.0 303.0 L 1374.0 291.0 L 1359.0 286.0 L 1354.0 283.0 L 1352.0 283.0 L 1339.0 277.0 L 1334.0 276.0 L 1331.0 274.0 L 1326.0 273.0 L 1323.0 271.0 L 1272.0 254.0 L 1269.0 254.0 L 1265.0 252.0 L 1262.0 252.0 L 1258.0 250.0 L 1255.0 250.0 L 1246.0 247.0 L 1242.0 247.0 L 1241.0 246.0 L 1237.0 246.0 L 1236.0 245.0 L 1232.0 245.0 L 1226.0 243.0 L 1221.0 243.0 L 1220.0 242.0 L 1214.0 242.0 L 1208.0 240.0 L 1195.0 239.0 L 1194.0 238.0 L 1176.0 237.0 L 1175.0 236.0 L 1164.0 236.0 L 1163.0 235.0 L 1147.0 235.0 L 1146.0 234.0 L 1093.0 234.0 L 1092.0 235.0 L 1074.0 235.0 L 1073.0 236.0 L 1037.0 238.0 L 1036.0 239.0 L 1011.0 241.0 L 1010.0 242.0 L 1004.0 242.0 L 1003.0 243.0 L 996.0 243.0 L 995.0 244.0 L 968.0 247.0 L 967.0 248.0 L 962.0 248.0 L 961.0 249.0 L 956.0 249.0 L 949.0 251.0 L 943.0 251.0 L 937.0 253.0 L 932.0 253.0 L 931.0 254.0 L 926.0 254.0 L 925.0 255.0 L 920.0 255.0 L 919.0 256.0 L 905.0 258.0 L 895.0 261.0 L 890.0 261.0 L 873.0 266.0 L 851.0 269.0 L 850.0 270.0 L 834.0 271.0 L 833.0 272.0 L 804.0 272.0 L 830.0 273.0 L 831.0 272.0 L 842.0 272.0 L 843.0 271.0 L 862.0 270.0 L 863.0 269.0 L 883.0 269.0 L 884.0 270.0 L 891.0 270.0 L 892.0 271.0 L 898.0 271.0 L 899.0 272.0 L 908.0 272.0 L 909.0 273.0 L 915.0 273.0 L 916.0 274.0 L 922.0 274.0 L 923.0 275.0 L 932.0 275.0 L 933.0 276.0 L 940.0 276.0 L 941.0 277.0 L 968.0 280.0 L 969.0 281.0 L 981.0 282.0 L 982.0 283.0 L 1000.0 285.0 L 1001.0 286.0 L 1006.0 286.0 L 1007.0 287.0 L 1012.0 287.0 L 1013.0 288.0 L 1018.0 288.0 L 1025.0 290.0 L 1031.0 290.0 L 1038.0 292.0 L 1044.0 292.0 L 1051.0 294.0 L 1057.0 294.0 L 1064.0 296.0 L 1070.0 296.0 L 1071.0 297.0 L 1077.0 297.0 L 1078.0 298.0 L 1084.0 298.0 L 1091.0 300.0 L 1097.0 300.0 L 1098.0 301.0 L 1104.0 301.0 L 1105.0 302.0 L 1111.0 302.0 L 1112.0 303.0 L 1119.0 303.0 L 1120.0 304.0 L 1126.0 304.0 L 1127.0 305.0 L 1133.0 305.0 L 1134.0 306.0 L 1140.0 306.0 L 1141.0 307.0 L 1147.0 307.0 L 1148.0 308.0 L 1155.0 308.0 L 1162.0 310.0 L 1169.0 310.0 L 1170.0 311.0 L 1177.0 311.0 L 1178.0 312.0 L 1184.0 312.0 L 1185.0 313.0 L 1191.0 313.0 L 1192.0 314.0 L 1199.0 314.0 L 1200.0 315.0 L 1206.0 315.0 L 1207.0 316.0 L 1215.0 316.0 L 1216.0 317.0 L 1223.0 317.0 L 1224.0 318.0 L 1231.0 318.0 L 1232.0 319.0 L 1239.0 319.0 L 1240.0 320.0 L 1247.0 320.0 L 1248.0 321.0 L 1256.0 321.0 L 1257.0 322.0 L 1264.0 322.0 L 1265.0 323.0 L 1273.0 323.0 L 1274.0 324.0 L 1281.0 324.0 L 1286.0 319.0 L 1288.0 319.0 L 1289.0 321.0 L 1275.0 338.0 L 1273.0 337.0 L 1273.0 334.0 L 1270.0 337.0 L 1261.0 342.0 L 1252.0 350.0 L 1257.0 352.0 L 1264.0 352.0 L 1265.0 353.0 L 1270.0 353.0 L 1273.0 351.0 L 1281.0 349.0 L 1286.0 346.0 L 1294.0 344.0 L 1301.0 340.0 L 1301.0 339.0 L 1298.0 339.0 L 1293.0 342.0 L 1291.0 341.0 L 1291.0 340.0 L 1298.0 334.0 L 1299.0 331.0 L 1303.0 326.0 L 1324.0 325.0 L 1325.0 324.0 L 1329.0 324.0 L 1335.0 322.0 L 1351.0 320.0 L 1352.0 319.0 L 1355.0 319.0 L 1356.0 318.0 L 1359.0 318.0 L 1367.0 315.0 L 1370.0 315.0 L 1379.0 312.0 L 1383.0 312.0 L 1388.0 310.0 L 1393.0 310.0 L 1399.0 308.0 L 1406.0 308.0 L 1407.0 307.0 L 1416.0 307.0 L 1417.0 306.0 L 1448.0 306.0 L 1449.0 307.0 L 1464.0 308.0 L 1465.0 309.0 L 1469.0 309.0 L 1470.0 310.0 L 1485.0 313.0 L 1496.0 317.0 L 1499.0 317.0 L 1509.0 321.0 L 1512.0 321.0 L 1548.0 333.0 L 1551.0 335.0 L 1557.0 336.0 L 1560.0 338.0 L 1568.0 340.0 L 1573.0 343.0 L 1590.0 349.0 L 1600.0 354.0 L 1601.0 356.0 L 1599.0 357.0 L 1596.0 355.0 L 1583.0 352.0 L 1579.0 350.0 L 1571.0 349.0 L 1561.0 346.0 L 1557.0 346.0 L 1556.0 345.0 L 1552.0 345.0 L 1587.0 363.0 L 1597.0 369.0 L 1608.0 378.0 L 1614.0 378.0 L 1619.0 381.0 L 1623.0 381.0 L 1624.0 382.0 L 1636.0 383.0 L 1637.0 384.0 L 1648.0 385.0 L 1649.0 386.0 L 1655.0 386.0 L 1649.0 378.0 L 1650.0 377.0 L 1656.0 377.0 L 1660.0 375.0 L 1663.0 375.0 L 1692.0 394.0 L 1705.0 404.0 L 1709.0 409.0 L 1708.0 410.0 L 1704.0 410.0 L 1703.0 409.0 L 1686.0 408.0 L 1679.0 406.0 L 1665.0 405.0 L 1664.0 404.0 L 1659.0 404.0 L 1658.0 403.0 L 1653.0 403.0 L 1652.0 402.0 L 1647.0 402.0 L 1640.0 400.0 L 1633.0 400.0 L 1632.0 399.0 L 1628.0 399.0 L 1622.0 397.0 L 1611.0 396.0 L 1605.0 394.0 L 1599.0 394.0 L 1593.0 392.0 L 1576.0 390.0 L 1575.0 389.0 L 1558.0 386.0 L 1558.0 389.0 L 1553.0 394.0 L 1545.0 394.0 L 1538.0 392.0 L 1543.0 401.0 L 1545.0 407.0 L 1545.0 410.0 L 1546.0 411.0 L 1546.0 417.0 L 1545.0 418.0 L 1543.0 417.0 L 1543.0 413.0 L 1540.0 405.0 L 1533.0 399.0 L 1534.0 400.0 L 1534.0 404.0 L 1535.0 405.0 L 1536.0 414.0 L 1537.0 415.0 L 1537.0 434.0 L 1536.0 435.0 L 1536.0 439.0 L 1535.0 441.0 L 1533.0 442.0 L 1532.0 441.0 L 1532.0 432.0 L 1533.0 431.0 L 1532.0 412.0 L 1531.0 411.0 L 1529.0 399.0 L 1525.0 389.0 L 1526.0 384.0 L 1510.0 360.0 L 1494.0 345.0 L 1483.0 338.0 L 1472.0 333.0 L 1451.0 327.0 L 1425.0 326.0 L 1424.0 327.0 L 1411.0 328.0 L 1389.0 335.0 L 1368.0 347.0 L 1354.0 359.0 L 1345.0 357.0 L 1352.0 359.0 L 1353.0 361.0 L 1346.0 369.0 L 1339.0 380.0 L 1328.0 403.0 L 1322.0 423.0 L 1321.0 432.0 L 1320.0 433.0 L 1317.0 433.0 L 1316.0 432.0 L 1296.0 431.0 L 1295.0 430.0 L 1275.0 429.0 L 1274.0 428.0 L 1264.0 428.0 L 1263.0 427.0 L 1254.0 427.0 L 1253.0 426.0 L 1243.0 426.0 L 1242.0 425.0 L 1233.0 425.0 L 1232.0 424.0 L 1223.0 424.0 L 1222.0 423.0 L 1213.0 423.0 L 1212.0 422.0 L 1203.0 422.0 L 1202.0 421.0 L 1194.0 421.0 L 1193.0 420.0 L 1184.0 420.0 L 1183.0 419.0 L 1174.0 419.0 L 1173.0 418.0 L 1138.0 415.0 L 1137.0 414.0 L 1105.0 411.0 L 1104.0 410.0 L 1090.0 409.0 L 1089.0 408.0 L 1083.0 408.0 L 1082.0 407.0 L 1075.0 407.0 L 1074.0 406.0 L 1068.0 406.0 L 1067.0 405.0 L 1061.0 405.0 L 1060.0 404.0 L 1055.0 404.0 L 1048.0 402.0 L 1030.0 400.0 L 1025.0 398.0 L 1015.0 386.0 L 1004.0 366.0 L 1002.0 364.0 L 998.0 355.0 L 996.0 353.0 L 995.0 349.0 L 991.0 342.0 L 991.0 338.0 L 994.0 333.0 L 1006.0 333.0 L 1007.0 334.0 L 1027.0 335.0 L 1028.0 336.0 L 1037.0 336.0 L 1038.0 337.0 L 1048.0 337.0 L 1049.0 338.0 L 1058.0 338.0 L 1059.0 339.0 L 1068.0 339.0 L 1069.0 340.0 L 1078.0 340.0 L 1079.0 341.0 L 1088.0 341.0 L 1089.0 342.0 L 1099.0 342.0 L 1100.0 343.0 L 1129.0 345.0 L 1130.0 346.0 L 1158.0 348.0 L 1159.0 349.0 L 1169.0 349.0 L 1170.0 350.0 L 1188.0 351.0 L 1189.0 352.0 L 1211.0 353.0 L 1212.0 354.0 L 1232.0 355.0 L 1233.0 356.0 L 1242.0 356.0 L 1243.0 357.0 L 1253.0 357.0 L 1254.0 358.0 L 1264.0 358.0 L 1265.0 359.0 L 1276.0 359.0 L 1277.0 360.0 L 1296.0 361.0 L 1269.0 358.0 L 1263.0 356.0 L 1245.0 354.0 L 1244.0 353.0 L 1238.0 353.0 L 1237.0 352.0 L 1232.0 352.0 L 1225.0 350.0 L 1219.0 350.0 L 1213.0 348.0 L 1208.0 348.0 L 1207.0 347.0 L 1202.0 347.0 L 1201.0 346.0 L 1196.0 346.0 L 1189.0 344.0 L 1183.0 344.0 L 1177.0 342.0 L 1171.0 342.0 L 1170.0 341.0 L 1165.0 341.0 L 1164.0 340.0 L 1159.0 340.0 L 1152.0 338.0 L 1146.0 338.0 L 1140.0 336.0 L 1134.0 336.0 L 1133.0 335.0 L 1128.0 335.0 L 1127.0 334.0 L 1122.0 334.0 L 1115.0 332.0 L 1109.0 332.0 L 1108.0 331.0 L 1096.0 330.0 L 1095.0 329.0 L 1077.0 327.0 L 1076.0 326.0 L 1069.0 326.0 L 1068.0 325.0 L 1063.0 325.0 L 1056.0 323.0 L 1043.0 322.0 L 1042.0 321.0 L 1030.0 320.0 L 1029.0 319.0 L 1011.0 317.0 L 1004.0 315.0 L 990.0 314.0 L 989.0 313.0 L 969.0 313.0 L 968.0 314.0 L 957.0 314.0 L 956.0 315.0 L 941.0 316.0 L 940.0 317.0 L 936.0 317.0 L 932.0 319.0 L 925.0 320.0 L 911.0 325.0 L 908.0 325.0 L 892.0 331.0 L 879.0 334.0 L 881.0 339.0 L 901.0 364.0 L 931.0 396.0 L 946.0 407.0 L 966.0 416.0 L 981.0 418.0 L 982.0 419.0 L 987.0 419.0 L 983.0 419.0 L 982.0 418.0 L 964.0 415.0 L 963.0 414.0 L 964.0 412.0 L 968.0 411.0 L 973.0 407.0 L 976.0 407.0 L 977.0 408.0 L 995.0 409.0 L 996.0 410.0 L 1027.0 412.0 L 1028.0 413.0 L 1028.0 421.0 L 1029.0 422.0 L 1031.0 422.0 L 1029.0 420.0 L 1029.0 417.0 L 1028.0 416.0 L 1029.0 413.0 L 1039.0 413.0 L 1040.0 414.0 L 1073.0 416.0 L 1074.0 417.0 L 1085.0 417.0 L 1086.0 418.0 L 1098.0 418.0 L 1099.0 419.0 L 1123.0 420.0 L 1124.0 421.0 L 1135.0 421.0 L 1136.0 422.0 L 1150.0 422.0 L 1151.0 423.0 L 1161.0 423.0 L 1162.0 424.0 L 1188.0 425.0 L 1189.0 426.0 L 1201.0 426.0 L 1202.0 427.0 L 1213.0 427.0 L 1214.0 428.0 L 1224.0 428.0 L 1225.0 429.0 L 1237.0 429.0 L 1238.0 430.0 L 1250.0 430.0 L 1251.0 431.0 L 1263.0 431.0 L 1264.0 432.0 L 1276.0 432.0 L 1277.0 433.0 L 1292.0 433.0 L 1293.0 434.0 L 1306.0 434.0 L 1307.0 435.0 L 1319.0 435.0 L 1320.0 436.0 L 1332.0 436.0 L 1333.0 437.0 L 1336.0 437.0 L 1338.0 441.0 L 1338.0 448.0 L 1341.0 458.0 L 1340.0 459.0 L 1338.0 458.0 L 1335.0 449.0 L 1324.0 454.0 L 1318.0 462.0 L 1314.0 463.0 L 1308.0 459.0 L 1307.0 456.0 L 1308.0 452.0 L 1307.0 451.0 L 1295.0 454.0 L 1284.0 459.0 L 1282.0 458.0 L 1283.0 456.0 L 1293.0 451.0 L 1300.0 449.0 L 1305.0 445.0 L 1277.0 444.0 L 1276.0 443.0 L 1259.0 443.0 L 1258.0 442.0 L 1240.0 442.0 L 1239.0 441.0 L 1222.0 441.0 L 1221.0 440.0 L 1201.0 440.0 L 1200.0 439.0 L 1184.0 439.0 L 1183.0 438.0 L 1165.0 438.0 L 1164.0 437.0 L 1147.0 437.0 L 1146.0 436.0 L 1113.0 435.0 L 1112.0 434.0 L 1096.0 434.0 L 1095.0 433.0 L 1078.0 433.0 L 1077.0 432.0 L 1061.0 432.0 L 1060.0 431.0 L 1041.0 431.0 L 1040.0 430.0 L 1025.0 430.0 L 1024.0 429.0 L 1011.0 429.0 L 1010.0 428.0 L 992.0 428.0 L 991.0 427.0 L 976.0 427.0 L 975.0 426.0 L 957.0 426.0 L 956.0 425.0 L 935.0 424.0 L 934.0 423.0 L 928.0 423.0 L 927.0 422.0 L 920.0 421.0 L 903.0 413.0 L 829.0 359.0 L 812.0 348.0 L 809.0 348.0 L 808.0 346.0 L 792.0 331.0 L 773.0 317.0 L 755.0 308.0 L 740.0 303.0 L 732.0 302.0 L 731.0 301.0 L 726.0 301.0 L 725.0 300.0 L 698.0 299.0 L 697.0 300.0 L 689.0 300.0 L 688.0 301.0 L 679.0 302.0 L 660.0 308.0 L 645.0 316.0 L 642.0 319.0 L 639.0 317.0 L 624.0 324.0 L 611.0 324.0 L 610.0 323.0 L 598.0 322.0 L 605.0 329.0 L 607.0 329.0 L 610.0 331.0 L 612.0 334.0 L 603.0 344.0 L 596.0 355.0 L 591.0 353.0 L 593.0 345.0 L 597.0 339.0 L 596.0 337.0 L 591.0 335.0 L 588.0 335.0 L 584.0 332.0 L 582.0 332.0 L 557.0 320.0 L 547.0 314.0 L 543.0 310.0 L 544.0 318.0 L 545.0 319.0 L 545.0 324.0 L 546.0 325.0 L 546.0 329.0 L 548.0 335.0 L 549.0 346.0 L 551.0 351.0 L 556.0 357.0 L 556.0 358.0 L 554.0 359.0 L 548.0 355.0 L 545.0 351.0 L 543.0 336.0 L 542.0 335.0 L 542.0 332.0 L 540.0 327.0 L 540.0 322.0 L 538.0 317.0 L 537.0 307.0 L 534.0 298.0 L 532.0 296.0 L 526.0 294.0 L 495.0 287.0 Z"/>
</g>
</svg>